<svg width="1068" height="354" viewBox="0 0 1068 354" fill="none" xmlns="http://www.w3.org/2000/svg">
<path d="M4.316 88.0252V97.8301H2.99722V89.6594L1.09072 90.4908L0.589009 89.3727L3.47026 88.0252H4.316ZM6.29115 92.9276C6.29115 91.4368 6.65908 90.2089 7.39492 89.2437C8.13076 88.2785 9.07684 87.7959 10.2332 87.7959C11.3895 87.7959 12.3356 88.2832 13.0714 89.258C13.8073 90.2232 14.1752 91.4464 14.1752 92.9276C14.1752 94.3993 13.8073 95.6273 13.0714 96.6116C12.3356 97.5768 11.3895 98.0594 10.2332 98.0594C9.07684 98.0594 8.13076 97.5768 7.39492 96.6116C6.65908 95.6273 6.29115 94.3993 6.29115 92.9276ZM12.8277 92.9276C12.8277 91.8 12.5888 90.873 12.111 90.1467C11.6427 89.4204 11.0168 89.0573 10.2332 89.0573C9.44954 89.0573 8.8236 89.4204 8.35534 90.1467C7.87752 90.873 7.63861 91.8 7.63861 92.9276C7.63861 94.0553 7.87752 94.987 8.35534 95.7229C8.8236 96.4396 9.44954 96.798 10.2332 96.798C11.0168 96.798 11.6427 96.4348 12.111 95.7086C12.5888 94.9727 12.8277 94.0457 12.8277 92.9276ZM15.5756 92.9276C15.5756 91.4368 15.9435 90.2089 16.6794 89.2437C17.4152 88.2785 18.3613 87.7959 19.5176 87.7959C20.6739 87.7959 21.62 88.2832 22.3559 89.258C23.0917 90.2232 23.4596 91.4464 23.4596 92.9276C23.4596 94.3993 23.0917 95.6273 22.3559 96.6116C21.62 97.5768 20.6739 98.0594 19.5176 98.0594C18.3613 98.0594 17.4152 97.5768 16.6794 96.6116C15.9435 95.6273 15.5756 94.3993 15.5756 92.9276ZM22.1122 92.9276C22.1122 91.8 21.8733 90.873 21.3955 90.1467C20.9272 89.4204 20.3012 89.0573 19.5176 89.0573C18.734 89.0573 18.1081 89.4204 17.6398 90.1467C17.162 90.873 16.9231 91.8 16.9231 92.9276C16.9231 94.0553 17.162 94.987 17.6398 95.7229C18.1081 96.4396 18.734 96.798 19.5176 96.798C20.3012 96.798 20.9272 96.4348 21.3955 95.7086C21.8733 94.9727 22.1122 94.0457 22.1122 92.9276Z" fill="#BCBCBC"/>
<line x1="58.5084" y1="92.4027" x2="1067.39" y2="92.4027" stroke="#E0E0E0" stroke-width="1.19455" stroke-linecap="round" stroke-dasharray="3.58 3.58"/>
<path d="M7.24026 145.291C7.24026 146.132 6.92012 146.829 6.27984 147.384C5.63001 147.947 4.84161 148.229 3.91464 148.229C2.98766 148.229 2.19926 147.947 1.54943 147.384C0.909148 146.829 0.589009 146.132 0.589009 145.291C0.589009 144.775 0.727577 144.306 1.00471 143.886C1.28185 143.456 1.67844 143.117 2.19448 142.868V142.811C1.81223 142.562 1.50164 142.257 1.26273 141.893C1.03338 141.53 0.918705 141.148 0.918705 140.747C0.918705 139.954 1.20062 139.289 1.76445 138.754C2.31872 138.229 3.03545 137.966 3.91464 137.966C4.79382 137.966 5.51055 138.229 6.06482 138.754C6.62865 139.289 6.91057 139.954 6.91057 140.747C6.91057 141.148 6.79111 141.53 6.5522 141.893C6.32285 142.257 6.01704 142.562 5.63479 142.811V142.868C6.15083 143.117 6.54742 143.456 6.82456 143.886C7.10169 144.306 7.24026 144.775 7.24026 145.291ZM2.26616 140.718C2.26616 141.177 2.41906 141.549 2.72486 141.836C3.03067 142.113 3.42726 142.252 3.91464 142.252C4.40201 142.252 4.7986 142.113 5.10441 141.836C5.41021 141.549 5.56311 141.177 5.56311 140.718C5.56311 140.259 5.41021 139.896 5.10441 139.629C4.7986 139.361 4.40201 139.227 3.91464 139.227C3.42726 139.227 3.03067 139.361 2.72486 139.629C2.41906 139.896 2.26616 140.259 2.26616 140.718ZM1.93646 145.219C1.93646 145.477 1.98424 145.711 2.07981 145.921C2.18493 146.132 2.32349 146.318 2.49551 146.481C2.67708 146.633 2.88732 146.753 3.12623 146.839C3.36514 146.925 3.62794 146.968 3.91464 146.968C4.20133 146.968 4.46413 146.925 4.70304 146.839C4.94195 146.753 5.14741 146.633 5.31943 146.481C5.501 146.318 5.63957 146.132 5.73513 145.921C5.84025 145.711 5.89281 145.477 5.89281 145.219C5.89281 144.722 5.70168 144.311 5.31943 143.986C4.93717 143.652 4.46891 143.485 3.91464 143.485C3.36036 143.485 2.88732 143.652 2.49551 143.986C2.12281 144.321 1.93646 144.732 1.93646 145.219ZM8.58693 143.098C8.58693 141.607 8.95485 140.379 9.69069 139.414C10.4265 138.448 11.3726 137.966 12.5289 137.966C13.6853 137.966 14.6314 138.453 15.3672 139.428C16.103 140.393 16.471 141.616 16.471 143.098C16.471 144.569 16.103 145.797 15.3672 146.782C14.6314 147.747 13.6853 148.229 12.5289 148.229C11.3726 148.229 10.4265 147.747 9.69069 146.782C8.95485 145.797 8.58693 144.569 8.58693 143.098ZM15.1235 143.098C15.1235 141.97 14.8846 141.043 14.4068 140.317C13.9385 139.59 13.3126 139.227 12.5289 139.227C11.7453 139.227 11.1194 139.59 10.6511 140.317C10.1733 141.043 9.93438 141.97 9.93438 143.098C9.93438 144.225 10.1733 145.157 10.6511 145.893C11.1194 146.61 11.7453 146.968 12.5289 146.968C13.3126 146.968 13.9385 146.605 14.4068 145.878C14.8846 145.143 15.1235 144.216 15.1235 143.098Z" fill="#BCBCBC"/>
<line x1="58.5084" y1="143.403" x2="1067.39" y2="143.403" stroke="#E0E0E0" stroke-width="1.19455" stroke-linecap="round" stroke-dasharray="3.58 3.58"/>
<path d="M4.24433 191.951C5.03751 191.951 5.74469 192.266 6.36585 192.897C6.99657 193.518 7.31193 194.259 7.31193 195.119C7.31193 195.998 6.97746 196.767 6.30851 197.426C5.63001 198.076 4.84638 198.401 3.95764 198.401C3.01156 198.401 2.2136 198.076 1.56376 197.426C0.913926 196.777 0.589009 196.007 0.589009 195.119C0.589009 194.325 0.909148 193.422 1.54943 192.409L4.40201 188.138L5.46277 188.869L3.04022 192.223L3.06889 192.252C3.36514 192.051 3.75695 191.951 4.24433 191.951ZM1.92213 195.133C1.92213 195.697 2.11803 196.175 2.50984 196.566C2.90166 196.949 3.38426 197.14 3.95764 197.14C4.53102 197.14 5.00884 196.949 5.3911 196.566C5.78291 196.175 5.97882 195.697 5.97882 195.133C5.97882 194.579 5.77813 194.106 5.37676 193.714C4.98495 193.322 4.51191 193.126 3.95764 193.126C3.41292 193.126 2.9351 193.322 2.52418 193.714C2.12281 194.106 1.92213 194.579 1.92213 195.133ZM8.65692 193.269C8.65692 191.779 9.02484 190.551 9.76069 189.585C10.4965 188.62 11.4426 188.138 12.5989 188.138C13.7553 188.138 14.7013 188.625 15.4372 189.6C16.173 190.565 16.541 191.788 16.541 193.269C16.541 194.741 16.173 195.969 15.4372 196.953C14.7013 197.919 13.7553 198.401 12.5989 198.401C11.4426 198.401 10.4965 197.919 9.76069 196.953C9.02484 195.969 8.65692 194.741 8.65692 193.269ZM15.1935 193.269C15.1935 192.142 14.9546 191.215 14.4768 190.489C14.0085 189.762 13.3826 189.399 12.5989 189.399C11.8153 189.399 11.1894 189.762 10.7211 190.489C10.2433 191.215 10.0044 192.142 10.0044 193.269C10.0044 194.397 10.2433 195.329 10.7211 196.065C11.1894 196.781 11.8153 197.14 12.5989 197.14C13.3826 197.14 14.0085 196.777 14.4768 196.05C14.9546 195.315 15.1935 194.388 15.1935 193.269Z" fill="#BCBCBC"/>
<line x1="58.5084" y1="193.403" x2="1067.39" y2="193.403" stroke="#E0E0E0" stroke-width="1.19455" stroke-linecap="round" stroke-dasharray="3.58 3.58"/>
<path d="M6.56654 246.278V248.342H5.24775V246.278H0.589009V245.274L5.13308 238.537H6.56654V245.045H7.82798V246.278H6.56654ZM2.07981 245.045H5.24775V240.472H5.19041L2.07981 245.045ZM9.23087 243.439C9.23087 241.949 9.59879 240.721 10.3346 239.755C11.0705 238.79 12.0166 238.308 13.1729 238.308C14.3292 238.308 15.2753 238.795 16.0111 239.77C16.747 240.735 17.1149 241.958 17.1149 243.439C17.1149 244.911 16.747 246.139 16.0111 247.123C15.2753 248.089 14.3292 248.571 13.1729 248.571C12.0166 248.571 11.0705 248.089 10.3346 247.123C9.59879 246.139 9.23087 244.911 9.23087 243.439ZM15.7674 243.439C15.7674 242.312 15.5285 241.385 15.0507 240.658C14.5824 239.932 13.9565 239.569 13.1729 239.569C12.3893 239.569 11.7633 239.932 11.295 240.658C10.8172 241.385 10.5783 242.312 10.5783 243.439C10.5783 244.567 10.8172 245.499 11.295 246.235C11.7633 246.951 12.3893 247.31 13.1729 247.31C13.9565 247.31 14.5824 246.947 15.0507 246.22C15.5285 245.484 15.7674 244.557 15.7674 243.439Z" fill="#BCBCBC"/>
<line x1="58.5084" y1="243.403" x2="1067.39" y2="243.403" stroke="#E0E0E0" stroke-width="1.19455" stroke-linecap="round" stroke-dasharray="3.58 3.58"/>
<path d="M6.83889 297.252V298.514H0.589009V297.195L3.12623 294.629C3.97675 293.759 4.56447 293.11 4.88939 292.679C5.21431 292.24 5.37676 291.781 5.37676 291.303C5.37676 290.873 5.20953 290.505 4.87505 290.2C4.54058 289.894 4.11054 289.741 3.58494 289.741C3.13579 289.741 2.74875 289.875 2.42384 290.142C2.09892 290.41 1.88868 290.735 1.79311 291.117L0.589009 290.63C0.780137 290.028 1.14806 289.521 1.69277 289.11C2.23749 288.69 2.87777 288.479 3.61361 288.479C4.50235 288.479 5.24297 288.752 5.83547 289.297C6.42797 289.841 6.72422 290.51 6.72422 291.303C6.72422 292.249 6.20339 293.272 5.16175 294.371L2.29483 297.252H6.83889ZM8.23696 293.611C8.23696 292.12 8.60488 290.892 9.34073 289.927C10.0766 288.962 11.0227 288.479 12.179 288.479C13.3353 288.479 14.2814 288.967 15.0172 289.942C15.7531 290.907 16.121 292.13 16.121 293.611C16.121 295.083 15.7531 296.311 15.0172 297.295C14.2814 298.26 13.3353 298.743 12.179 298.743C11.0227 298.743 10.0766 298.26 9.34073 297.295C8.60488 296.311 8.23696 295.083 8.23696 293.611ZM14.7735 293.611C14.7735 292.484 14.5346 291.557 14.0568 290.83C13.5885 290.104 12.9626 289.741 12.179 289.741C11.3954 289.741 10.7694 290.104 10.3011 290.83C9.82333 291.557 9.58442 292.484 9.58442 293.611C9.58442 294.739 9.82333 295.671 10.3011 296.406C10.7694 297.123 11.3954 297.482 12.179 297.482C12.9626 297.482 13.5885 297.118 14.0568 296.392C14.5346 295.656 14.7735 294.729 14.7735 293.611Z" fill="#BCBCBC"/>
<line x1="58.5084" y1="293.403" x2="1067.39" y2="293.403" stroke="#E0E0E0" stroke-width="1.19455" stroke-linecap="round" stroke-dasharray="3.58 3.58"/>
<path d="M59.9449 321.718C59.9449 322.178 59.8366 322.611 59.6199 323.018C59.4032 323.426 59.0566 323.759 58.5799 324.019C58.1032 324.271 57.4922 324.396 56.7469 324.396H55.1089V328.062H53.6269V319.027H56.7469C57.4402 319.027 58.0252 319.149 58.5019 319.391C58.9872 319.625 59.3469 319.946 59.5809 320.353C59.8236 320.761 59.9449 321.216 59.9449 321.718ZM56.7469 323.187C57.3102 323.187 57.7306 323.062 58.0079 322.81C58.2852 322.55 58.4239 322.186 58.4239 321.718C58.4239 320.73 57.8649 320.236 56.7469 320.236H55.1089V323.187H56.7469ZM60.7344 323.525C60.7344 322.641 60.938 321.848 61.3454 321.146C61.7614 320.444 62.3204 319.898 63.0224 319.508C63.733 319.11 64.5087 318.91 65.3494 318.91C66.3114 318.91 67.165 319.149 67.9104 319.625C68.6644 320.093 69.2104 320.761 69.5484 321.627H67.7674C67.5334 321.151 67.2084 320.795 66.7924 320.561C66.3764 320.327 65.8954 320.21 65.3494 320.21C64.7514 320.21 64.2184 320.345 63.7504 320.613C63.2824 320.882 62.914 321.268 62.6454 321.77C62.3854 322.273 62.2554 322.858 62.2554 323.525C62.2554 324.193 62.3854 324.778 62.6454 325.28C62.914 325.783 63.2824 326.173 63.7504 326.45C64.2184 326.719 64.7514 326.853 65.3494 326.853C65.8954 326.853 66.3764 326.736 66.7924 326.502C67.2084 326.268 67.5334 325.913 67.7674 325.436H69.5484C69.2104 326.303 68.6644 326.97 67.9104 327.438C67.165 327.906 66.3114 328.141 65.3494 328.141C64.5 328.141 63.7244 327.945 63.0224 327.555C62.3204 327.157 61.7614 326.606 61.3454 325.904C60.938 325.202 60.7344 324.409 60.7344 323.525Z" fill="#BCBCBC"/>
<path d="M139.088 328.154C138.481 328.154 137.935 328.049 137.45 327.841C136.965 327.625 136.583 327.321 136.306 326.931C136.029 326.541 135.89 326.086 135.89 325.566H137.476C137.511 325.956 137.662 326.277 137.931 326.528C138.208 326.78 138.594 326.905 139.088 326.905C139.599 326.905 139.998 326.784 140.284 326.541C140.57 326.29 140.713 325.969 140.713 325.579C140.713 325.276 140.622 325.029 140.44 324.838C140.267 324.648 140.046 324.5 139.777 324.396C139.517 324.292 139.153 324.18 138.685 324.058C138.096 323.902 137.615 323.746 137.242 323.59C136.878 323.426 136.566 323.174 136.306 322.836C136.046 322.498 135.916 322.048 135.916 321.484C135.916 320.964 136.046 320.509 136.306 320.119C136.566 319.729 136.93 319.43 137.398 319.222C137.866 319.014 138.408 318.91 139.023 318.91C139.898 318.91 140.613 319.131 141.168 319.573C141.731 320.007 142.043 320.605 142.104 321.367H140.466C140.44 321.038 140.284 320.756 139.998 320.522C139.712 320.288 139.335 320.171 138.867 320.171C138.442 320.171 138.096 320.28 137.827 320.496C137.558 320.713 137.424 321.025 137.424 321.432C137.424 321.71 137.506 321.939 137.671 322.121C137.844 322.295 138.061 322.433 138.321 322.537C138.581 322.641 138.936 322.754 139.387 322.875C139.985 323.04 140.47 323.205 140.843 323.369C141.224 323.534 141.545 323.79 141.805 324.136C142.074 324.474 142.208 324.929 142.208 325.501C142.208 325.961 142.082 326.394 141.831 326.801C141.588 327.209 141.229 327.538 140.752 327.789C140.284 328.032 139.729 328.154 139.088 328.154ZM150.314 320.9V328.062H148.832V327.217C148.598 327.512 148.29 327.746 147.909 327.919C147.536 328.084 147.137 328.167 146.713 328.167C146.149 328.167 145.642 328.049 145.192 327.815C144.75 327.581 144.399 327.235 144.139 326.775C143.887 326.316 143.762 325.761 143.762 325.111V320.9H145.231V324.89C145.231 325.532 145.391 326.026 145.712 326.372C146.032 326.71 146.47 326.879 147.025 326.879C147.579 326.879 148.017 326.71 148.338 326.372C148.667 326.026 148.832 325.532 148.832 324.89V320.9H150.314ZM153.621 321.952C153.872 321.623 154.215 321.346 154.648 321.12C155.081 320.895 155.571 320.782 156.117 320.782C156.741 320.782 157.309 320.938 157.82 321.25C158.34 321.554 158.747 321.983 159.042 322.537C159.337 323.092 159.484 323.729 159.484 324.448C159.484 325.168 159.337 325.813 159.042 326.385C158.747 326.949 158.34 327.391 157.82 327.711C157.309 328.024 156.741 328.18 156.117 328.18C155.571 328.18 155.086 328.071 154.661 327.854C154.236 327.629 153.89 327.352 153.621 327.022V331.469H152.139V320.9H153.621V321.952ZM157.976 324.448C157.976 323.954 157.872 323.53 157.664 323.174C157.465 322.81 157.196 322.537 156.858 322.355C156.529 322.165 156.173 322.069 155.792 322.069C155.419 322.069 155.064 322.165 154.726 322.355C154.397 322.546 154.128 322.823 153.92 323.187C153.721 323.551 153.621 323.98 153.621 324.474C153.621 324.968 153.721 325.402 153.92 325.774C154.128 326.138 154.397 326.416 154.726 326.606C155.064 326.797 155.419 326.892 155.792 326.892C156.173 326.892 156.529 326.797 156.858 326.606C157.196 326.407 157.465 326.121 157.664 325.748C157.872 325.376 157.976 324.942 157.976 324.448Z" fill="#BCBCBC"/>
<path d="M228.491 324.305C228.491 324.574 228.473 324.817 228.439 325.033H222.966C223.009 325.605 223.221 326.065 223.603 326.411C223.984 326.758 224.452 326.931 225.007 326.931C225.804 326.931 226.367 326.598 226.697 325.93H228.296C228.079 326.589 227.685 327.131 227.113 327.555C226.549 327.972 225.847 328.18 225.007 328.18C224.322 328.18 223.707 328.028 223.161 327.724C222.623 327.412 222.199 326.979 221.887 326.424C221.583 325.861 221.432 325.211 221.432 324.474C221.432 323.738 221.579 323.092 221.874 322.537C222.177 321.974 222.597 321.541 223.135 321.237C223.681 320.934 224.305 320.782 225.007 320.782C225.683 320.782 226.285 320.93 226.814 321.224C227.342 321.519 227.754 321.935 228.049 322.472C228.343 323.001 228.491 323.612 228.491 324.305ZM226.944 323.837C226.935 323.291 226.74 322.854 226.359 322.524C225.977 322.195 225.505 322.03 224.942 322.03C224.43 322.03 223.993 322.195 223.629 322.524C223.265 322.845 223.048 323.283 222.979 323.837H226.944ZM231.301 318.442V328.062H229.819V318.442H231.301ZM239.682 324.305C239.682 324.574 239.665 324.817 239.63 325.033H234.157C234.2 325.605 234.413 326.065 234.794 326.411C235.175 326.758 235.643 326.931 236.198 326.931C236.995 326.931 237.559 326.598 237.888 325.93H239.487C239.27 326.589 238.876 327.131 238.304 327.555C237.741 327.972 237.039 328.18 236.198 328.18C235.513 328.18 234.898 328.028 234.352 327.724C233.815 327.412 233.39 326.979 233.078 326.424C232.775 325.861 232.623 325.211 232.623 324.474C232.623 323.738 232.77 323.092 233.065 322.537C233.368 321.974 233.789 321.541 234.326 321.237C234.872 320.934 235.496 320.782 236.198 320.782C236.874 320.782 237.476 320.93 238.005 321.224C238.534 321.519 238.945 321.935 239.24 322.472C239.535 323.001 239.682 323.612 239.682 324.305ZM238.135 323.837C238.126 323.291 237.931 322.854 237.55 322.524C237.169 322.195 236.696 322.03 236.133 322.03C235.622 322.03 235.184 322.195 234.82 322.524C234.456 322.845 234.239 323.283 234.17 323.837H238.135ZM240.516 324.474C240.516 323.738 240.664 323.092 240.958 322.537C241.262 321.974 241.678 321.541 242.206 321.237C242.735 320.934 243.342 320.782 244.026 320.782C244.893 320.782 245.608 320.99 246.171 321.406C246.743 321.814 247.129 322.399 247.328 323.161H245.729C245.599 322.806 245.391 322.529 245.105 322.329C244.819 322.13 244.46 322.03 244.026 322.03C243.42 322.03 242.934 322.247 242.57 322.68C242.215 323.105 242.037 323.703 242.037 324.474C242.037 325.246 242.215 325.848 242.57 326.281C242.934 326.715 243.42 326.931 244.026 326.931C244.884 326.931 245.452 326.554 245.729 325.8H247.328C247.12 326.528 246.73 327.109 246.158 327.542C245.586 327.967 244.876 328.18 244.026 328.18C243.342 328.18 242.735 328.028 242.206 327.724C241.678 327.412 241.262 326.979 240.958 326.424C240.664 325.861 240.516 325.211 240.516 324.474Z" fill="#BCBCBC"/>
<path d="M317.672 326.216H313.889L313.239 328.062H311.692L314.929 319.014H316.645L319.882 328.062H318.322L317.672 326.216ZM317.256 325.007L315.787 320.808L314.305 325.007H317.256ZM322.641 326.866H325.696V328.062H321.159V319.027H322.641V326.866ZM328.288 319.027V328.062H326.806V319.027H328.288ZM325.013 339.027V348.062H323.531V341.874L320.775 348.062H319.748L316.979 341.874V348.062H315.497V339.027H317.096L320.268 346.112L323.427 339.027H325.013Z" fill="#BCBCBC"/>
<path d="M396.156 319.027V325.54C396.156 326.346 395.909 326.983 395.415 327.451C394.929 327.919 394.288 328.154 393.491 328.154C392.693 328.154 392.048 327.919 391.554 327.451C391.068 326.983 390.826 326.346 390.826 325.54H392.321C392.329 325.939 392.429 326.255 392.62 326.489C392.819 326.723 393.109 326.84 393.491 326.84C393.872 326.84 394.162 326.723 394.362 326.489C394.561 326.247 394.661 325.93 394.661 325.54V319.027H396.156ZM405.002 324.305C405.002 324.574 404.984 324.817 404.95 325.033H399.477C399.52 325.605 399.732 326.065 400.114 326.411C400.495 326.758 400.963 326.931 401.518 326.931C402.315 326.931 402.878 326.598 403.208 325.93H404.807C404.59 326.589 404.196 327.131 403.624 327.555C403.06 327.972 402.358 328.18 401.518 328.18C400.833 328.18 400.218 328.028 399.672 327.724C399.134 327.412 398.71 326.979 398.398 326.424C398.094 325.861 397.943 325.211 397.943 324.474C397.943 323.738 398.09 323.092 398.385 322.537C398.688 321.974 399.108 321.541 399.646 321.237C400.192 320.934 400.816 320.782 401.518 320.782C402.194 320.782 402.796 320.93 403.325 321.224C403.853 321.519 404.265 321.935 404.56 322.472C404.854 323.001 405.002 323.612 405.002 324.305ZM403.455 323.837C403.446 323.291 403.251 322.854 402.87 322.524C402.488 322.195 402.016 322.03 401.453 322.03C400.941 322.03 400.504 322.195 400.14 322.524C399.776 322.845 399.559 323.283 399.49 323.837H403.455ZM412.817 320.9V328.062H411.335V327.217C411.101 327.512 410.793 327.746 410.412 327.919C410.039 328.084 409.641 328.167 409.216 328.167C408.653 328.167 408.146 328.049 407.695 327.815C407.253 327.581 406.902 327.235 406.642 326.775C406.391 326.316 406.265 325.761 406.265 325.111V320.9H407.734V324.89C407.734 325.532 407.894 326.026 408.215 326.372C408.536 326.71 408.973 326.879 409.528 326.879C410.083 326.879 410.52 326.71 410.841 326.372C411.17 326.026 411.335 325.532 411.335 324.89V320.9H412.817ZM417.711 324.435L420.025 328.062H418.348L416.801 325.631L415.345 328.062H413.798L416.112 324.539L413.798 320.9H415.475L417.022 323.33L418.478 320.9H420.025L417.711 324.435Z" fill="#BCBCBC"/>
<path d="M485.308 326.866H488.363V328.062H483.826V319.027H485.308V326.866ZM490.226 319.95C489.957 319.95 489.732 319.859 489.55 319.677C489.368 319.495 489.277 319.27 489.277 319.001C489.277 318.733 489.368 318.507 489.55 318.325C489.732 318.143 489.957 318.052 490.226 318.052C490.486 318.052 490.707 318.143 490.889 318.325C491.071 318.507 491.162 318.733 491.162 319.001C491.162 319.27 491.071 319.495 490.889 319.677C490.707 319.859 490.486 319.95 490.226 319.95ZM490.954 320.9V328.062H489.472V320.9H490.954ZM495.539 326.736L497.567 320.9H499.14L496.41 328.062H494.642L491.925 320.9H493.511L495.539 326.736ZM483.676 341.939C483.893 341.575 484.179 341.294 484.534 341.094C484.898 340.886 485.327 340.782 485.821 340.782V342.316H485.444C484.864 342.316 484.422 342.464 484.118 342.758C483.824 343.053 483.676 343.564 483.676 344.292V348.062H482.194V340.9H483.676V341.939ZM493.619 344.305C493.619 344.574 493.601 344.817 493.567 345.033H488.094C488.137 345.605 488.349 346.065 488.731 346.411C489.112 346.758 489.58 346.931 490.135 346.931C490.932 346.931 491.495 346.598 491.825 345.93H493.424C493.207 346.589 492.813 347.131 492.241 347.555C491.677 347.972 490.975 348.18 490.135 348.18C489.45 348.18 488.835 348.028 488.289 347.724C487.751 347.412 487.327 346.979 487.015 346.424C486.711 345.861 486.56 345.211 486.56 344.474C486.56 343.738 486.707 343.092 487.002 342.537C487.305 341.974 487.725 341.541 488.263 341.237C488.809 340.934 489.433 340.782 490.135 340.782C490.811 340.782 491.413 340.93 491.942 341.224C492.47 341.519 492.882 341.935 493.177 342.472C493.471 343.001 493.619 343.612 493.619 344.305ZM492.072 343.837C492.063 343.291 491.868 342.854 491.487 342.524C491.105 342.195 490.633 342.03 490.07 342.03C489.558 342.03 489.121 342.195 488.757 342.524C488.393 342.845 488.176 343.283 488.107 343.837H492.072ZM497.547 348.18C496.984 348.18 496.477 348.08 496.026 347.88C495.584 347.672 495.233 347.395 494.973 347.048C494.713 346.693 494.574 346.299 494.557 345.865H496.091C496.117 346.169 496.26 346.424 496.52 346.632C496.789 346.832 497.122 346.931 497.521 346.931C497.937 346.931 498.258 346.853 498.483 346.697C498.717 346.533 498.834 346.325 498.834 346.073C498.834 345.805 498.704 345.605 498.444 345.475C498.193 345.345 497.79 345.202 497.235 345.046C496.698 344.899 496.26 344.756 495.922 344.617C495.584 344.479 495.289 344.266 495.038 343.98C494.795 343.694 494.674 343.317 494.674 342.849C494.674 342.468 494.787 342.121 495.012 341.809C495.237 341.489 495.558 341.237 495.974 341.055C496.399 340.873 496.884 340.782 497.43 340.782C498.245 340.782 498.899 340.99 499.393 341.406C499.896 341.814 500.164 342.373 500.199 343.083H498.717C498.691 342.763 498.561 342.507 498.327 342.316C498.093 342.126 497.777 342.03 497.378 342.03C496.988 342.03 496.689 342.104 496.481 342.251C496.273 342.399 496.169 342.594 496.169 342.836C496.169 343.027 496.238 343.187 496.377 343.317C496.516 343.447 496.685 343.551 496.884 343.629C497.083 343.699 497.378 343.79 497.768 343.902C498.288 344.041 498.713 344.184 499.042 344.331C499.38 344.47 499.67 344.678 499.913 344.955C500.156 345.233 500.281 345.601 500.29 346.06C500.29 346.468 500.177 346.832 499.952 347.152C499.727 347.473 499.406 347.725 498.99 347.906C498.583 348.089 498.102 348.18 497.547 348.18Z" fill="#BCBCBC"/>
<path d="M575.902 326.216H572.119L571.469 328.062H569.922L573.159 319.014H574.875L578.112 328.062H576.552L575.902 326.216ZM575.486 325.007L574.017 320.808L572.535 325.007H575.486ZM578.896 324.474C578.896 323.738 579.043 323.092 579.338 322.537C579.641 321.974 580.057 321.541 580.586 321.237C581.115 320.934 581.721 320.782 582.406 320.782C583.273 320.782 583.988 320.99 584.551 321.406C585.123 321.814 585.509 322.399 585.708 323.161H584.109C583.979 322.806 583.771 322.529 583.485 322.329C583.199 322.13 582.839 322.03 582.406 322.03C581.799 322.03 581.314 322.247 580.95 322.68C580.595 323.105 580.417 323.703 580.417 324.474C580.417 325.246 580.595 325.848 580.95 326.281C581.314 326.715 581.799 326.931 582.406 326.931C583.264 326.931 583.832 326.554 584.109 325.8H585.708C585.5 326.528 585.11 327.109 584.538 327.542C583.966 327.967 583.255 328.18 582.406 328.18C581.721 328.18 581.115 328.028 580.586 327.724C580.057 327.412 579.641 326.979 579.338 326.424C579.043 325.861 578.896 325.211 578.896 324.474Z" fill="#BCBCBC"/>
<path d="M659.56 318.988V328.062H657.74V322.16L655.309 328.062H653.931L651.487 322.16V328.062H649.667V318.988H651.734L654.62 325.735L657.506 318.988H659.56ZM667.925 324.305C667.925 324.565 667.907 324.799 667.873 325.007H662.608C662.651 325.527 662.833 325.935 663.154 326.229C663.474 326.524 663.869 326.671 664.337 326.671C665.013 326.671 665.494 326.381 665.78 325.8H667.743C667.535 326.494 667.136 327.066 666.547 327.516C665.957 327.958 665.234 328.18 664.376 328.18C663.682 328.18 663.058 328.028 662.504 327.724C661.958 327.412 661.529 326.975 661.217 326.411C660.913 325.848 660.762 325.198 660.762 324.461C660.762 323.716 660.913 323.062 661.217 322.498C661.52 321.935 661.945 321.502 662.491 321.199C663.037 320.895 663.665 320.743 664.376 320.743C665.06 320.743 665.671 320.891 666.209 321.185C666.755 321.48 667.175 321.9 667.47 322.446C667.773 322.984 667.925 323.603 667.925 324.305ZM666.04 323.785C666.031 323.317 665.862 322.945 665.533 322.667C665.203 322.381 664.8 322.238 664.324 322.238C663.873 322.238 663.492 322.377 663.18 322.654C662.876 322.923 662.69 323.3 662.621 323.785H666.04ZM675.922 320.86V328.062H674.089V327.152C673.855 327.464 673.547 327.711 673.166 327.893C672.793 328.067 672.386 328.154 671.944 328.154C671.381 328.154 670.882 328.036 670.449 327.802C670.016 327.56 669.673 327.209 669.422 326.749C669.179 326.281 669.058 325.727 669.058 325.085V320.86H670.878V324.825C670.878 325.397 671.021 325.839 671.307 326.152C671.593 326.455 671.983 326.606 672.477 326.606C672.98 326.606 673.374 326.455 673.66 326.152C673.946 325.839 674.089 325.397 674.089 324.825V320.86H675.922ZM655.417 341.913C655.651 341.567 655.971 341.285 656.379 341.068C656.795 340.852 657.267 340.743 657.796 340.743C658.411 340.743 658.966 340.895 659.46 341.199C659.962 341.502 660.357 341.935 660.643 342.498C660.937 343.053 661.085 343.699 661.085 344.435C661.085 345.172 660.937 345.826 660.643 346.398C660.357 346.962 659.962 347.399 659.46 347.711C658.966 348.024 658.411 348.18 657.796 348.18C657.258 348.18 656.786 348.076 656.379 347.867C655.98 347.651 655.659 347.373 655.417 347.035V348.062H653.597V338.442H655.417V341.913ZM659.226 344.435C659.226 344.002 659.135 343.629 658.953 343.317C658.779 342.997 658.545 342.754 658.251 342.589C657.965 342.425 657.653 342.342 657.315 342.342C656.985 342.342 656.673 342.429 656.379 342.602C656.093 342.767 655.859 343.01 655.677 343.33C655.503 343.651 655.417 344.028 655.417 344.461C655.417 344.895 655.503 345.272 655.677 345.592C655.859 345.913 656.093 346.16 656.379 346.333C656.673 346.498 656.985 346.58 657.315 346.58C657.653 346.58 657.965 346.494 658.251 346.32C658.545 346.147 658.779 345.9 658.953 345.579C659.135 345.259 659.226 344.877 659.226 344.435ZM664.097 338.442V348.062H662.277V338.442H664.097ZM672.46 344.305C672.46 344.565 672.443 344.799 672.408 345.007H667.143C667.187 345.527 667.369 345.935 667.689 346.229C668.01 346.524 668.404 346.671 668.872 346.671C669.548 346.671 670.029 346.381 670.315 345.8H672.278C672.07 346.494 671.672 347.066 671.082 347.516C670.493 347.958 669.769 348.18 668.911 348.18C668.218 348.18 667.594 348.028 667.039 347.724C666.493 347.412 666.064 346.975 665.752 346.411C665.449 345.848 665.297 345.198 665.297 344.461C665.297 343.716 665.449 343.062 665.752 342.498C666.056 341.935 666.48 341.502 667.026 341.199C667.572 340.895 668.201 340.743 668.911 340.743C669.596 340.743 670.207 340.891 670.744 341.185C671.29 341.48 671.711 341.9 672.005 342.446C672.309 342.984 672.46 343.603 672.46 344.305ZM670.575 343.785C670.567 343.317 670.398 342.945 670.068 342.667C669.739 342.381 669.336 342.238 668.859 342.238C668.409 342.238 668.027 342.377 667.715 342.654C667.412 342.923 667.226 343.3 667.156 343.785H670.575Z" fill="#1F1515"/>
<path d="M746.458 319.027V328.062H744.976V321.874L742.22 328.062H741.193L738.424 321.874V328.062H736.942V319.027H738.541L741.713 326.112L744.872 319.027H746.458ZM747.782 324.448C747.782 323.729 747.929 323.092 748.224 322.537C748.527 321.983 748.934 321.554 749.446 321.25C749.966 320.938 750.538 320.782 751.162 320.782C751.725 320.782 752.215 320.895 752.631 321.12C753.055 321.337 753.393 321.61 753.645 321.939V320.9H755.14V328.062H753.645V326.996C753.393 327.334 753.051 327.616 752.618 327.841C752.184 328.067 751.69 328.18 751.136 328.18C750.52 328.18 749.957 328.024 749.446 327.711C748.934 327.391 748.527 326.949 748.224 326.385C747.929 325.813 747.782 325.168 747.782 324.448ZM753.645 324.474C753.645 323.98 753.541 323.551 753.333 323.187C753.133 322.823 752.869 322.546 752.54 322.355C752.21 322.165 751.855 322.069 751.474 322.069C751.092 322.069 750.737 322.165 750.408 322.355C750.078 322.537 749.81 322.81 749.602 323.174C749.402 323.53 749.303 323.954 749.303 324.448C749.303 324.942 749.402 325.376 749.602 325.748C749.81 326.121 750.078 326.407 750.408 326.606C750.746 326.797 751.101 326.892 751.474 326.892C751.855 326.892 752.21 326.797 752.54 326.606C752.869 326.416 753.133 326.138 753.333 325.774C753.541 325.402 753.645 324.968 753.645 324.474ZM759.79 324.487L763.092 328.062H761.09L758.438 324.981V328.062H756.956V318.442H758.438V324.032L761.038 320.9H763.092L759.79 324.487ZM744.605 344.305C744.605 344.574 744.588 344.817 744.553 345.033H739.08C739.123 345.605 739.336 346.065 739.717 346.411C740.098 346.758 740.566 346.931 741.121 346.931C741.918 346.931 742.482 346.598 742.811 345.93H744.41C744.193 346.589 743.799 347.131 743.227 347.555C742.664 347.972 741.962 348.18 741.121 348.18C740.436 348.18 739.821 348.028 739.275 347.724C738.738 347.412 738.313 346.979 738.001 346.424C737.698 345.861 737.546 345.211 737.546 344.474C737.546 343.738 737.693 343.092 737.988 342.537C738.291 341.974 738.712 341.541 739.249 341.237C739.795 340.934 740.419 340.782 741.121 340.782C741.797 340.782 742.399 340.93 742.928 341.224C743.457 341.519 743.868 341.935 744.163 342.472C744.458 343.001 744.605 343.612 744.605 344.305ZM743.058 343.837C743.049 343.291 742.854 342.854 742.473 342.524C742.092 342.195 741.619 342.03 741.056 342.03C740.545 342.03 740.107 342.195 739.743 342.524C739.379 342.845 739.162 343.283 739.093 343.837H743.058ZM752.42 340.9V348.062H750.938V347.217C750.704 347.512 750.397 347.746 750.015 347.919C749.643 348.084 749.244 348.167 748.819 348.167C748.256 348.167 747.749 348.049 747.298 347.815C746.856 347.581 746.505 347.235 746.245 346.775C745.994 346.316 745.868 345.761 745.868 345.111V340.9H747.337V344.89C747.337 345.532 747.498 346.026 747.818 346.372C748.139 346.71 748.577 346.879 749.131 346.879C749.686 346.879 750.124 346.71 750.444 346.372C750.774 346.026 750.938 345.532 750.938 344.89V340.9H752.42ZM755.728 341.952C755.979 341.623 756.321 341.346 756.755 341.12C757.188 340.895 757.678 340.782 758.224 340.782C758.848 340.782 759.415 340.938 759.927 341.25C760.447 341.554 760.854 341.983 761.149 342.537C761.443 343.092 761.591 343.729 761.591 344.448C761.591 345.168 761.443 345.813 761.149 346.385C760.854 346.949 760.447 347.391 759.927 347.711C759.415 348.024 758.848 348.18 758.224 348.18C757.678 348.18 757.192 348.071 756.768 347.854C756.343 347.629 755.996 347.352 755.728 347.022V351.469H754.246V340.9H755.728V341.952ZM760.083 344.448C760.083 343.954 759.979 343.53 759.771 343.174C759.571 342.81 759.303 342.537 758.965 342.355C758.635 342.165 758.28 342.069 757.899 342.069C757.526 342.069 757.171 342.165 756.833 342.355C756.503 342.546 756.235 342.823 756.027 343.187C755.827 343.551 755.728 343.98 755.728 344.474C755.728 344.968 755.827 345.402 756.027 345.774C756.235 346.138 756.503 346.416 756.833 346.606C757.171 346.797 757.526 346.892 757.899 346.892C758.28 346.892 758.635 346.797 758.965 346.606C759.303 346.407 759.571 346.121 759.771 345.748C759.979 345.376 760.083 344.942 760.083 344.448Z" fill="#BCBCBC"/>
<path d="M833.267 321.718C833.267 322.178 833.159 322.611 832.942 323.018C832.726 323.426 832.379 323.759 831.902 324.019C831.426 324.271 830.815 324.396 830.069 324.396H828.431V328.062H826.949V319.027H830.069C830.763 319.027 831.348 319.149 831.824 319.391C832.31 319.625 832.669 319.946 832.903 320.353C833.146 320.761 833.267 321.216 833.267 321.718ZM830.069 323.187C830.633 323.187 831.053 323.062 831.33 322.81C831.608 322.55 831.746 322.186 831.746 321.718C831.746 320.73 831.187 320.236 830.069 320.236H828.431V323.187H830.069ZM835.305 319.95C835.036 319.95 834.811 319.859 834.629 319.677C834.447 319.495 834.356 319.27 834.356 319.001C834.356 318.733 834.447 318.507 834.629 318.325C834.811 318.143 835.036 318.052 835.305 318.052C835.565 318.052 835.786 318.143 835.968 318.325C836.15 318.507 836.241 318.733 836.241 319.001C836.241 319.27 836.15 319.495 835.968 319.677C835.786 319.859 835.565 319.95 835.305 319.95ZM836.033 320.9V328.062H834.551V320.9H836.033ZM844.414 324.305C844.414 324.574 844.396 324.817 844.362 325.033H838.889C838.932 325.605 839.144 326.065 839.526 326.411C839.907 326.758 840.375 326.931 840.93 326.931C841.727 326.931 842.29 326.598 842.62 325.93H844.219C844.002 326.589 843.608 327.131 843.036 327.555C842.472 327.972 841.77 328.18 840.93 328.18C840.245 328.18 839.63 328.028 839.084 327.724C838.546 327.412 838.122 326.979 837.81 326.424C837.506 325.861 837.355 325.211 837.355 324.474C837.355 323.738 837.502 323.092 837.797 322.537C838.1 321.974 838.52 321.541 839.058 321.237C839.604 320.934 840.228 320.782 840.93 320.782C841.606 320.782 842.208 320.93 842.737 321.224C843.265 321.519 843.677 321.935 843.972 322.472C844.266 323.001 844.414 323.612 844.414 324.305ZM842.867 323.837C842.858 323.291 842.663 322.854 842.282 322.524C841.9 322.195 841.428 322.03 840.865 322.03C840.353 322.03 839.916 322.195 839.552 322.524C839.188 322.845 838.971 323.283 838.902 323.837H842.867ZM828.072 344.474C828.072 343.738 828.22 343.092 828.514 342.537C828.818 341.974 829.234 341.541 829.762 341.237C830.291 340.934 830.898 340.782 831.582 340.782C832.449 340.782 833.164 340.99 833.727 341.406C834.299 341.814 834.685 342.399 834.884 343.161H833.285C833.155 342.806 832.947 342.529 832.661 342.329C832.375 342.13 832.016 342.03 831.582 342.03C830.976 342.03 830.49 342.247 830.126 342.68C829.771 343.105 829.593 343.703 829.593 344.474C829.593 345.246 829.771 345.848 830.126 346.281C830.49 346.715 830.976 346.931 831.582 346.931C832.44 346.931 833.008 346.554 833.285 345.8H834.884C834.676 346.528 834.286 347.109 833.714 347.542C833.142 347.967 832.432 348.18 831.582 348.18C830.898 348.18 830.291 348.028 829.762 347.724C829.234 347.412 828.818 346.979 828.514 346.424C828.22 345.861 828.072 345.211 828.072 344.474ZM842.796 344.305C842.796 344.574 842.779 344.817 842.744 345.033H837.271C837.315 345.605 837.527 346.065 837.908 346.411C838.29 346.758 838.758 346.931 839.312 346.931C840.11 346.931 840.673 346.598 841.002 345.93H842.601C842.385 346.589 841.99 347.131 841.418 347.555C840.855 347.972 840.153 348.18 839.312 348.18C838.628 348.18 838.012 348.028 837.466 347.724C836.929 347.412 836.504 346.979 836.192 346.424C835.889 345.861 835.737 345.211 835.737 344.474C835.737 343.738 835.885 343.092 836.179 342.537C836.483 341.974 836.903 341.541 837.44 341.237C837.986 340.934 838.61 340.782 839.312 340.782C839.988 340.782 840.591 340.93 841.119 341.224C841.648 341.519 842.06 341.935 842.354 342.472C842.649 343.001 842.796 343.612 842.796 344.305ZM841.249 343.837C841.241 343.291 841.046 342.854 840.664 342.524C840.283 342.195 839.811 342.03 839.247 342.03C838.736 342.03 838.298 342.195 837.934 342.524C837.57 342.845 837.354 343.283 837.284 343.837H841.249Z" fill="#BCBCBC"/>
<path d="M918.313 318.965L914.92 328H913.204L909.798 318.965H911.384L914.062 326.479L916.753 318.965H918.313ZM925.987 324.243C925.987 324.512 925.97 324.754 925.935 324.971H920.462C920.506 325.543 920.718 326.002 921.099 326.349C921.481 326.696 921.949 326.869 922.503 326.869C923.301 326.869 923.864 326.535 924.193 325.868H925.792C925.576 326.527 925.181 327.068 924.609 327.493C924.046 327.909 923.344 328.117 922.503 328.117C921.819 328.117 921.203 327.965 920.657 327.662C920.12 327.35 919.695 326.917 919.383 326.362C919.08 325.799 918.928 325.149 918.928 324.412C918.928 323.675 919.076 323.03 919.37 322.475C919.674 321.912 920.094 321.478 920.631 321.175C921.177 320.872 921.801 320.72 922.503 320.72C923.179 320.72 923.782 320.867 924.31 321.162C924.839 321.457 925.251 321.873 925.545 322.41C925.84 322.939 925.987 323.55 925.987 324.243ZM924.44 323.775C924.432 323.229 924.237 322.791 923.855 322.462C923.474 322.133 923.002 321.968 922.438 321.968C921.927 321.968 921.489 322.133 921.125 322.462C920.761 322.783 920.545 323.22 920.475 323.775H924.44ZM929.045 322.046V326.011C929.045 326.28 929.105 326.475 929.227 326.596C929.357 326.709 929.573 326.765 929.877 326.765H930.787V328H929.617C928.949 328 928.438 327.844 928.083 327.532C927.727 327.22 927.55 326.713 927.55 326.011V322.046H926.705V320.837H927.55V319.056H929.045V320.837H930.787V322.046H929.045ZM938.588 324.243C938.588 324.512 938.57 324.754 938.536 324.971H933.063C933.106 325.543 933.318 326.002 933.7 326.349C934.081 326.696 934.549 326.869 935.104 326.869C935.901 326.869 936.464 326.535 936.794 325.868H938.393C938.176 326.527 937.782 327.068 937.21 327.493C936.646 327.909 935.944 328.117 935.104 328.117C934.419 328.117 933.804 327.965 933.258 327.662C932.72 327.35 932.296 326.917 931.984 326.362C931.68 325.799 931.529 325.149 931.529 324.412C931.529 323.675 931.676 323.03 931.971 322.475C932.274 321.912 932.694 321.478 933.232 321.175C933.778 320.872 934.402 320.72 935.104 320.72C935.78 320.72 936.382 320.867 936.911 321.162C937.439 321.457 937.851 321.873 938.146 322.41C938.44 322.939 938.588 323.55 938.588 324.243ZM937.041 323.775C937.032 323.229 936.837 322.791 936.456 322.462C936.074 322.133 935.602 321.968 935.039 321.968C934.527 321.968 934.09 322.133 933.726 322.462C933.362 322.783 933.145 323.22 933.076 323.775H937.041ZM948.587 320.72C949.151 320.72 949.653 320.837 950.095 321.071C950.546 321.305 950.897 321.652 951.148 322.111C951.408 322.57 951.538 323.125 951.538 323.775V328H950.069V323.996C950.069 323.355 949.909 322.865 949.588 322.527C949.268 322.18 948.83 322.007 948.275 322.007C947.721 322.007 947.279 322.18 946.949 322.527C946.629 322.865 946.468 323.355 946.468 323.996V328H944.999V323.996C944.999 323.355 944.839 322.865 944.518 322.527C944.198 322.18 943.76 322.007 943.205 322.007C942.651 322.007 942.209 322.18 941.879 322.527C941.559 322.865 941.398 323.355 941.398 323.996V328H939.916V320.837H941.398V321.656C941.641 321.361 941.949 321.132 942.321 320.967C942.694 320.802 943.093 320.72 943.517 320.72C944.089 320.72 944.601 320.841 945.051 321.084C945.502 321.327 945.849 321.678 946.091 322.137C946.308 321.704 946.646 321.361 947.105 321.11C947.565 320.85 948.059 320.72 948.587 320.72ZM928.019 344.243C928.019 344.512 928.001 344.754 927.967 344.971H922.494C922.537 345.543 922.749 346.002 923.131 346.349C923.512 346.696 923.98 346.869 924.535 346.869C925.332 346.869 925.895 346.535 926.225 345.868H927.824C927.607 346.527 927.213 347.068 926.641 347.493C926.077 347.909 925.375 348.117 924.535 348.117C923.85 348.117 923.235 347.965 922.689 347.662C922.151 347.35 921.727 346.917 921.415 346.362C921.111 345.799 920.96 345.149 920.96 344.412C920.96 343.675 921.107 343.03 921.402 342.475C921.705 341.912 922.125 341.478 922.663 341.175C923.209 340.872 923.833 340.72 924.535 340.72C925.211 340.72 925.813 340.867 926.342 341.162C926.87 341.457 927.282 341.873 927.577 342.41C927.871 342.939 928.019 343.55 928.019 344.243ZM926.472 343.775C926.463 343.229 926.268 342.791 925.887 342.462C925.505 342.133 925.033 341.968 924.47 341.968C923.958 341.968 923.521 342.133 923.157 342.462C922.793 342.783 922.576 343.22 922.507 343.775H926.472ZM932.961 340.72C933.524 340.72 934.027 340.837 934.469 341.071C934.92 341.305 935.271 341.652 935.522 342.111C935.773 342.57 935.899 343.125 935.899 343.775V348H934.43V343.996C934.43 343.355 934.27 342.865 933.949 342.527C933.628 342.18 933.191 342.007 932.636 342.007C932.081 342.007 931.639 342.18 931.31 342.527C930.989 342.865 930.829 343.355 930.829 343.996V348H929.347V340.837H930.829V341.656C931.072 341.361 931.379 341.132 931.752 340.967C932.133 340.802 932.536 340.72 932.961 340.72ZM939.388 342.046V346.011C939.388 346.28 939.449 346.475 939.57 346.596C939.7 346.709 939.917 346.765 940.22 346.765H941.13V348H939.96C939.293 348 938.782 347.844 938.426 347.532C938.071 347.22 937.893 346.713 937.893 346.011V342.046H937.048V340.837H937.893V339.056H939.388V340.837H941.13V342.046H939.388Z" fill="#BCBCBC"/>
<path d="M999.019 328.154C998.413 328.154 997.867 328.049 997.381 327.841C996.896 327.625 996.515 327.321 996.237 326.931C995.96 326.541 995.821 326.086 995.821 325.566H997.407C997.442 325.956 997.594 326.277 997.862 326.528C998.14 326.78 998.525 326.905 999.019 326.905C999.531 326.905 999.929 326.784 1000.22 326.541C1000.5 326.29 1000.64 325.969 1000.64 325.579C1000.64 325.276 1000.55 325.029 1000.37 324.838C1000.2 324.648 999.977 324.5 999.708 324.396C999.448 324.292 999.084 324.18 998.616 324.058C998.027 323.902 997.546 323.746 997.173 323.59C996.809 323.426 996.497 323.174 996.237 322.836C995.977 322.498 995.847 322.048 995.847 321.484C995.847 320.964 995.977 320.509 996.237 320.119C996.497 319.729 996.861 319.43 997.329 319.222C997.797 319.014 998.339 318.91 998.954 318.91C999.83 318.91 1000.54 319.131 1001.1 319.573C1001.66 320.007 1001.97 320.605 1002.04 321.367H1000.4C1000.37 321.038 1000.22 320.756 999.929 320.522C999.643 320.288 999.266 320.171 998.798 320.171C998.374 320.171 998.027 320.28 997.758 320.496C997.49 320.713 997.355 321.025 997.355 321.432C997.355 321.71 997.438 321.939 997.602 322.121C997.776 322.295 997.992 322.433 998.252 322.537C998.512 322.641 998.868 322.754 999.318 322.875C999.916 323.04 1000.4 323.205 1000.77 323.369C1001.16 323.534 1001.48 323.79 1001.74 324.136C1002.01 324.474 1002.14 324.929 1002.14 325.501C1002.14 325.961 1002.01 326.394 1001.76 326.801C1001.52 327.209 1001.16 327.538 1000.68 327.789C1000.22 328.032 999.661 328.154 999.019 328.154ZM1003.26 324.448C1003.26 323.729 1003.41 323.092 1003.71 322.537C1004.01 321.983 1004.42 321.554 1004.93 321.25C1005.45 320.938 1006.02 320.782 1006.64 320.782C1007.21 320.782 1007.7 320.895 1008.11 321.12C1008.54 321.337 1008.88 321.61 1009.13 321.939V320.9H1010.62V328.062H1009.13V326.996C1008.88 327.334 1008.53 327.616 1008.1 327.841C1007.67 328.067 1007.17 328.18 1006.62 328.18C1006 328.18 1005.44 328.024 1004.93 327.711C1004.42 327.391 1004.01 326.949 1003.71 326.385C1003.41 325.813 1003.26 325.168 1003.26 324.448ZM1009.13 324.474C1009.13 323.98 1009.02 323.551 1008.82 323.187C1008.62 322.823 1008.35 322.546 1008.02 322.355C1007.69 322.165 1007.34 322.069 1006.96 322.069C1006.57 322.069 1006.22 322.165 1005.89 322.355C1005.56 322.537 1005.29 322.81 1005.08 323.174C1004.88 323.53 1004.79 323.954 1004.79 324.448C1004.79 324.942 1004.88 325.376 1005.08 325.748C1005.29 326.121 1005.56 326.407 1005.89 326.606C1006.23 326.797 1006.58 326.892 1006.96 326.892C1007.34 326.892 1007.69 326.797 1008.02 326.606C1008.35 326.416 1008.62 326.138 1008.82 325.774C1009.02 325.402 1009.13 324.968 1009.13 324.474ZM1011.94 324.474C1011.94 323.738 1012.09 323.092 1012.39 322.537C1012.69 321.974 1013.11 321.541 1013.63 321.237C1014.16 320.934 1014.77 320.782 1015.45 320.782C1016.32 320.782 1017.04 320.99 1017.6 321.406C1018.17 321.814 1018.56 322.399 1018.76 323.161H1017.16C1017.03 322.806 1016.82 322.529 1016.53 322.329C1016.25 322.13 1015.89 322.03 1015.45 322.03C1014.85 322.03 1014.36 322.247 1014 322.68C1013.64 323.105 1013.47 323.703 1013.47 324.474C1013.47 325.246 1013.64 325.848 1014 326.281C1014.36 326.715 1014.85 326.931 1015.45 326.931C1016.31 326.931 1016.88 326.554 1017.16 325.8H1018.76C1018.55 326.528 1018.16 327.109 1017.59 327.542C1017.01 327.967 1016.3 328.18 1015.45 328.18C1014.77 328.18 1014.16 328.028 1013.63 327.724C1013.11 327.412 1012.69 326.979 1012.39 326.424C1012.09 325.861 1011.94 325.211 1011.94 324.474Z" fill="#BCBCBC"/>
<rect x="33.4326" y="190.062" width="56.6335" height="111" rx="16" fill="#FAFAFA"/>
<g filter="url(#filter0_d_663_2518)">
<rect x="33.4326" y="220.062" width="56.3586" height="81" rx="16" fill="#243645"/>
</g>
<rect x="119.508" y="159.062" width="56.6335" height="142" rx="16" fill="#FAFAFA"/>
<g filter="url(#filter1_d_663_2518)">
<rect x="119.508" y="195.062" width="56.3586" height="106" rx="16" fill="#243645"/>
</g>
<rect x="205.16" y="125.062" width="56.6335" height="176" rx="16" fill="#FAFAFA"/>
<g filter="url(#filter2_d_663_2518)">
<rect x="205.583" y="174.062" width="56.3586" height="127" rx="16" fill="#243645"/>
</g>
<rect x="291.024" y="170.062" width="56.6335" height="131" rx="16" fill="#FAFAFA"/>
<g filter="url(#filter3_d_663_2518)">
<rect x="290.633" y="205.062" width="57.3834" height="96" rx="16" fill="#243645"/>
</g>
<rect x="376.887" y="207.062" width="56.6335" height="94" rx="16" fill="#FAFAFA"/>
<g filter="url(#filter4_d_663_2518)">
<rect x="376.708" y="240.062" width="56.3586" height="61" rx="16" fill="#243645"/>
</g>
<rect x="462.751" y="170.062" width="56.6335" height="131" rx="16" fill="#FAFAFA"/>
<g filter="url(#filter5_d_663_2518)">
<rect x="462.783" y="207.062" width="56.3586" height="94" rx="16" fill="#243645"/>
</g>
<rect x="548.615" y="159.062" width="56.6335" height="142" rx="16" fill="#FAFAFA"/>
<g filter="url(#filter6_d_663_2518)">
<rect x="548.858" y="191.062" width="56.3586" height="110" rx="16" fill="#243645"/>
</g>
<rect x="625.711" y="94.0625" width="73.0755" height="207" rx="16" fill="#FAFAFA"/>
<g filter="url(#filter7_d_663_2518)">
<rect x="625.711" y="165.062" width="72.7539" height="136" rx="16" fill="#243645"/>
</g>
<rect x="720.343" y="120.062" width="56.6335" height="181" rx="16" fill="#FAFAFA"/>
<g filter="url(#filter8_d_663_2518)">
<rect x="719.983" y="184.062" width="57.3834" height="117" rx="16" fill="#243645"/>
</g>
<rect x="806.206" y="149.062" width="56.6335" height="152" rx="16" fill="#FAFAFA"/>
<g filter="url(#filter9_d_663_2518)">
<rect x="806.059" y="207.062" width="56.3586" height="94" rx="16" fill="#243645"/>
</g>
<rect x="892.069" y="190.062" width="56.6335" height="111" rx="16" fill="#FAFAFA"/>
<g filter="url(#filter10_d_663_2518)">
<rect x="892.134" y="225.062" width="56.3586" height="76" rx="16" fill="#243645"/>
</g>
<rect x="977.934" y="133.062" width="56.6335" height="168" rx="16" fill="#FAFAFA"/>
<g filter="url(#filter11_d_663_2518)">
<rect x="978.208" y="170.062" width="56.3586" height="131" rx="16" fill="#243645"/>
</g>
<g filter="url(#filter12_d_663_2518)">
<rect x="513.8" y="4.9375" width="32" height="21" rx="10.5" fill="#1A2B88" shape-rendering="crispEdges"/>
<path d="M528.884 11.6775L524.236 20.1615L523.088 19.5735L527.526 11.5935H522.682L522.71 10.3615H528.884V11.6775ZM536.912 11.6775L532.264 20.1615L531.116 19.5735L535.554 11.5935H530.71L530.738 10.3615H536.912V11.6775Z" fill="white"/>
</g>
<g filter="url(#filter13_d_663_2518)">
<path d="M528.546 29.224C527.535 27.8671 528.503 25.9375 530.195 25.9375C531.888 25.9375 532.856 27.8671 531.845 29.224C531.022 30.3279 529.369 30.3279 528.546 29.224Z" fill="#1A2B88"/>
</g>
<defs>
<filter id="filter0_d_663_2518" x="21.4326" y="216.062" width="80.3584" height="105" filterUnits="userSpaceOnUse" color-interpolation-filters="sRGB">
<feFlood flood-opacity="0" result="BackgroundImageFix"/>
<feColorMatrix in="SourceAlpha" type="matrix" values="0 0 0 0 0 0 0 0 0 0 0 0 0 0 0 0 0 0 127 0" result="hardAlpha"/>
<feOffset dy="8"/>
<feGaussianBlur stdDeviation="6"/>
<feComposite in2="hardAlpha" operator="out"/>
<feColorMatrix type="matrix" values="0 0 0 0 0.52849 0 0 0 0 0.566891 0 0 0 0 0.9125 0 0 0 0.3 0"/>
<feBlend mode="normal" in2="BackgroundImageFix" result="effect1_dropShadow_663_2518"/>
<feBlend mode="normal" in="SourceGraphic" in2="effect1_dropShadow_663_2518" result="shape"/>
</filter>
<filter id="filter1_d_663_2518" x="107.508" y="191.062" width="80.3584" height="130" filterUnits="userSpaceOnUse" color-interpolation-filters="sRGB">
<feFlood flood-opacity="0" result="BackgroundImageFix"/>
<feColorMatrix in="SourceAlpha" type="matrix" values="0 0 0 0 0 0 0 0 0 0 0 0 0 0 0 0 0 0 127 0" result="hardAlpha"/>
<feOffset dy="8"/>
<feGaussianBlur stdDeviation="6"/>
<feComposite in2="hardAlpha" operator="out"/>
<feColorMatrix type="matrix" values="0 0 0 0 0.52849 0 0 0 0 0.566891 0 0 0 0 0.9125 0 0 0 0.3 0"/>
<feBlend mode="normal" in2="BackgroundImageFix" result="effect1_dropShadow_663_2518"/>
<feBlend mode="normal" in="SourceGraphic" in2="effect1_dropShadow_663_2518" result="shape"/>
</filter>
<filter id="filter2_d_663_2518" x="193.583" y="170.062" width="80.3584" height="151" filterUnits="userSpaceOnUse" color-interpolation-filters="sRGB">
<feFlood flood-opacity="0" result="BackgroundImageFix"/>
<feColorMatrix in="SourceAlpha" type="matrix" values="0 0 0 0 0 0 0 0 0 0 0 0 0 0 0 0 0 0 127 0" result="hardAlpha"/>
<feOffset dy="8"/>
<feGaussianBlur stdDeviation="6"/>
<feComposite in2="hardAlpha" operator="out"/>
<feColorMatrix type="matrix" values="0 0 0 0 0.52849 0 0 0 0 0.566891 0 0 0 0 0.9125 0 0 0 0.3 0"/>
<feBlend mode="normal" in2="BackgroundImageFix" result="effect1_dropShadow_663_2518"/>
<feBlend mode="normal" in="SourceGraphic" in2="effect1_dropShadow_663_2518" result="shape"/>
</filter>
<filter id="filter3_d_663_2518" x="278.633" y="201.062" width="81.3838" height="120" filterUnits="userSpaceOnUse" color-interpolation-filters="sRGB">
<feFlood flood-opacity="0" result="BackgroundImageFix"/>
<feColorMatrix in="SourceAlpha" type="matrix" values="0 0 0 0 0 0 0 0 0 0 0 0 0 0 0 0 0 0 127 0" result="hardAlpha"/>
<feOffset dy="8"/>
<feGaussianBlur stdDeviation="6"/>
<feComposite in2="hardAlpha" operator="out"/>
<feColorMatrix type="matrix" values="0 0 0 0 0.52849 0 0 0 0 0.566891 0 0 0 0 0.9125 0 0 0 0.3 0"/>
<feBlend mode="normal" in2="BackgroundImageFix" result="effect1_dropShadow_663_2518"/>
<feBlend mode="normal" in="SourceGraphic" in2="effect1_dropShadow_663_2518" result="shape"/>
</filter>
<filter id="filter4_d_663_2518" x="364.708" y="236.062" width="80.3584" height="85" filterUnits="userSpaceOnUse" color-interpolation-filters="sRGB">
<feFlood flood-opacity="0" result="BackgroundImageFix"/>
<feColorMatrix in="SourceAlpha" type="matrix" values="0 0 0 0 0 0 0 0 0 0 0 0 0 0 0 0 0 0 127 0" result="hardAlpha"/>
<feOffset dy="8"/>
<feGaussianBlur stdDeviation="6"/>
<feComposite in2="hardAlpha" operator="out"/>
<feColorMatrix type="matrix" values="0 0 0 0 0.52849 0 0 0 0 0.566891 0 0 0 0 0.9125 0 0 0 0.3 0"/>
<feBlend mode="normal" in2="BackgroundImageFix" result="effect1_dropShadow_663_2518"/>
<feBlend mode="normal" in="SourceGraphic" in2="effect1_dropShadow_663_2518" result="shape"/>
</filter>
<filter id="filter5_d_663_2518" x="450.783" y="203.062" width="80.3584" height="118" filterUnits="userSpaceOnUse" color-interpolation-filters="sRGB">
<feFlood flood-opacity="0" result="BackgroundImageFix"/>
<feColorMatrix in="SourceAlpha" type="matrix" values="0 0 0 0 0 0 0 0 0 0 0 0 0 0 0 0 0 0 127 0" result="hardAlpha"/>
<feOffset dy="8"/>
<feGaussianBlur stdDeviation="6"/>
<feComposite in2="hardAlpha" operator="out"/>
<feColorMatrix type="matrix" values="0 0 0 0 0.52849 0 0 0 0 0.566891 0 0 0 0 0.9125 0 0 0 0.3 0"/>
<feBlend mode="normal" in2="BackgroundImageFix" result="effect1_dropShadow_663_2518"/>
<feBlend mode="normal" in="SourceGraphic" in2="effect1_dropShadow_663_2518" result="shape"/>
</filter>
<filter id="filter6_d_663_2518" x="536.858" y="187.062" width="80.3584" height="134" filterUnits="userSpaceOnUse" color-interpolation-filters="sRGB">
<feFlood flood-opacity="0" result="BackgroundImageFix"/>
<feColorMatrix in="SourceAlpha" type="matrix" values="0 0 0 0 0 0 0 0 0 0 0 0 0 0 0 0 0 0 127 0" result="hardAlpha"/>
<feOffset dy="8"/>
<feGaussianBlur stdDeviation="6"/>
<feComposite in2="hardAlpha" operator="out"/>
<feColorMatrix type="matrix" values="0 0 0 0 0.52849 0 0 0 0 0.566891 0 0 0 0 0.9125 0 0 0 0.3 0"/>
<feBlend mode="normal" in2="BackgroundImageFix" result="effect1_dropShadow_663_2518"/>
<feBlend mode="normal" in="SourceGraphic" in2="effect1_dropShadow_663_2518" result="shape"/>
</filter>
<filter id="filter7_d_663_2518" x="613.711" y="161.062" width="96.7539" height="160" filterUnits="userSpaceOnUse" color-interpolation-filters="sRGB">
<feFlood flood-opacity="0" result="BackgroundImageFix"/>
<feColorMatrix in="SourceAlpha" type="matrix" values="0 0 0 0 0 0 0 0 0 0 0 0 0 0 0 0 0 0 127 0" result="hardAlpha"/>
<feOffset dy="8"/>
<feGaussianBlur stdDeviation="6"/>
<feComposite in2="hardAlpha" operator="out"/>
<feColorMatrix type="matrix" values="0 0 0 0 0.52849 0 0 0 0 0.566891 0 0 0 0 0.9125 0 0 0 0.3 0"/>
<feBlend mode="normal" in2="BackgroundImageFix" result="effect1_dropShadow_663_2518"/>
<feBlend mode="normal" in="SourceGraphic" in2="effect1_dropShadow_663_2518" result="shape"/>
</filter>
<filter id="filter8_d_663_2518" x="707.983" y="180.062" width="81.3838" height="141" filterUnits="userSpaceOnUse" color-interpolation-filters="sRGB">
<feFlood flood-opacity="0" result="BackgroundImageFix"/>
<feColorMatrix in="SourceAlpha" type="matrix" values="0 0 0 0 0 0 0 0 0 0 0 0 0 0 0 0 0 0 127 0" result="hardAlpha"/>
<feOffset dy="8"/>
<feGaussianBlur stdDeviation="6"/>
<feComposite in2="hardAlpha" operator="out"/>
<feColorMatrix type="matrix" values="0 0 0 0 0.52849 0 0 0 0 0.566891 0 0 0 0 0.9125 0 0 0 0.3 0"/>
<feBlend mode="normal" in2="BackgroundImageFix" result="effect1_dropShadow_663_2518"/>
<feBlend mode="normal" in="SourceGraphic" in2="effect1_dropShadow_663_2518" result="shape"/>
</filter>
<filter id="filter9_d_663_2518" x="794.059" y="203.062" width="80.3584" height="118" filterUnits="userSpaceOnUse" color-interpolation-filters="sRGB">
<feFlood flood-opacity="0" result="BackgroundImageFix"/>
<feColorMatrix in="SourceAlpha" type="matrix" values="0 0 0 0 0 0 0 0 0 0 0 0 0 0 0 0 0 0 127 0" result="hardAlpha"/>
<feOffset dy="8"/>
<feGaussianBlur stdDeviation="6"/>
<feComposite in2="hardAlpha" operator="out"/>
<feColorMatrix type="matrix" values="0 0 0 0 0.52849 0 0 0 0 0.566891 0 0 0 0 0.9125 0 0 0 0.3 0"/>
<feBlend mode="normal" in2="BackgroundImageFix" result="effect1_dropShadow_663_2518"/>
<feBlend mode="normal" in="SourceGraphic" in2="effect1_dropShadow_663_2518" result="shape"/>
</filter>
<filter id="filter10_d_663_2518" x="880.134" y="221.062" width="80.3584" height="100" filterUnits="userSpaceOnUse" color-interpolation-filters="sRGB">
<feFlood flood-opacity="0" result="BackgroundImageFix"/>
<feColorMatrix in="SourceAlpha" type="matrix" values="0 0 0 0 0 0 0 0 0 0 0 0 0 0 0 0 0 0 127 0" result="hardAlpha"/>
<feOffset dy="8"/>
<feGaussianBlur stdDeviation="6"/>
<feComposite in2="hardAlpha" operator="out"/>
<feColorMatrix type="matrix" values="0 0 0 0 0.52849 0 0 0 0 0.566891 0 0 0 0 0.9125 0 0 0 0.3 0"/>
<feBlend mode="normal" in2="BackgroundImageFix" result="effect1_dropShadow_663_2518"/>
<feBlend mode="normal" in="SourceGraphic" in2="effect1_dropShadow_663_2518" result="shape"/>
</filter>
<filter id="filter11_d_663_2518" x="966.208" y="166.062" width="80.3584" height="155" filterUnits="userSpaceOnUse" color-interpolation-filters="sRGB">
<feFlood flood-opacity="0" result="BackgroundImageFix"/>
<feColorMatrix in="SourceAlpha" type="matrix" values="0 0 0 0 0 0 0 0 0 0 0 0 0 0 0 0 0 0 127 0" result="hardAlpha"/>
<feOffset dy="8"/>
<feGaussianBlur stdDeviation="6"/>
<feComposite in2="hardAlpha" operator="out"/>
<feColorMatrix type="matrix" values="0 0 0 0 0.52849 0 0 0 0 0.566891 0 0 0 0 0.9125 0 0 0 0.3 0"/>
<feBlend mode="normal" in2="BackgroundImageFix" result="effect1_dropShadow_663_2518"/>
<feBlend mode="normal" in="SourceGraphic" in2="effect1_dropShadow_663_2518" result="shape"/>
</filter>
<filter id="filter12_d_663_2518" x="505.8" y="0.9375" width="48" height="37" filterUnits="userSpaceOnUse" color-interpolation-filters="sRGB">
<feFlood flood-opacity="0" result="BackgroundImageFix"/>
<feColorMatrix in="SourceAlpha" type="matrix" values="0 0 0 0 0 0 0 0 0 0 0 0 0 0 0 0 0 0 127 0" result="hardAlpha"/>
<feOffset dy="4"/>
<feGaussianBlur stdDeviation="4"/>
<feComposite in2="hardAlpha" operator="out"/>
<feColorMatrix type="matrix" values="0 0 0 0 0 0 0 0 0 0 0 0 0 0 0 0 0 0 0.1 0"/>
<feBlend mode="normal" in2="BackgroundImageFix" result="effect1_dropShadow_663_2518"/>
<feBlend mode="normal" in="SourceGraphic" in2="effect1_dropShadow_663_2518" result="shape"/>
</filter>
<filter id="filter13_d_663_2518" x="520.135" y="21.9375" width="20.1221" height="20.1152" filterUnits="userSpaceOnUse" color-interpolation-filters="sRGB">
<feFlood flood-opacity="0" result="BackgroundImageFix"/>
<feColorMatrix in="SourceAlpha" type="matrix" values="0 0 0 0 0 0 0 0 0 0 0 0 0 0 0 0 0 0 127 0" result="hardAlpha"/>
<feOffset dy="4"/>
<feGaussianBlur stdDeviation="4"/>
<feComposite in2="hardAlpha" operator="out"/>
<feColorMatrix type="matrix" values="0 0 0 0 0 0 0 0 0 0 0 0 0 0 0 0 0 0 0.1 0"/>
<feBlend mode="normal" in2="BackgroundImageFix" result="effect1_dropShadow_663_2518"/>
<feBlend mode="normal" in="SourceGraphic" in2="effect1_dropShadow_663_2518" result="shape"/>
</filter>
</defs>
</svg>
