<svg width="1026" height="280" viewBox="0 0 1026 280" fill="none" xmlns="http://www.w3.org/2000/svg">
<path d="M38.9449 228.156C38.9449 228.615 38.8366 229.049 38.6199 229.456C38.4032 229.863 38.0566 230.197 37.5799 230.457C37.1032 230.708 36.4922 230.834 35.7469 230.834H34.1089V234.5H32.6269V225.465H35.7469C36.4402 225.465 37.0252 225.586 37.5019 225.829C37.9872 226.063 38.3469 226.384 38.5809 226.791C38.8236 227.198 38.9449 227.653 38.9449 228.156ZM35.7469 229.625C36.3102 229.625 36.7306 229.499 37.0079 229.248C37.2852 228.988 37.4239 228.624 37.4239 228.156C37.4239 227.168 36.8649 226.674 35.7469 226.674H34.1089V229.625H35.7469ZM39.7344 229.963C39.7344 229.079 39.938 228.286 40.3454 227.584C40.7614 226.882 41.3204 226.336 42.0224 225.946C42.733 225.547 43.5087 225.348 44.3494 225.348C45.3114 225.348 46.165 225.586 46.9104 226.063C47.6644 226.531 48.2104 227.198 48.5484 228.065H46.7674C46.5334 227.588 46.2084 227.233 45.7924 226.999C45.3764 226.765 44.8954 226.648 44.3494 226.648C43.7514 226.648 43.2184 226.782 42.7504 227.051C42.2824 227.32 41.914 227.705 41.6454 228.208C41.3854 228.711 41.2554 229.296 41.2554 229.963C41.2554 230.63 41.3854 231.215 41.6454 231.718C41.914 232.221 42.2824 232.611 42.7504 232.888C43.2184 233.157 43.7514 233.291 44.3494 233.291C44.8954 233.291 45.3764 233.174 45.7924 232.94C46.2084 232.706 46.5334 232.351 46.7674 231.874H48.5484C48.2104 232.741 47.6644 233.408 46.9104 233.876C46.165 234.344 45.3114 234.578 44.3494 234.578C43.5 234.578 42.7244 234.383 42.0224 233.993C41.3204 233.594 40.7614 233.044 40.3454 232.342C39.938 231.64 39.7344 230.847 39.7344 229.963Z" fill="#BCBCBC"/>
<path d="M118.088 234.591C117.481 234.591 116.935 234.487 116.45 234.279C115.965 234.062 115.583 233.759 115.306 233.369C115.029 232.979 114.89 232.524 114.89 232.004H116.476C116.511 232.394 116.662 232.715 116.931 232.966C117.208 233.217 117.594 233.343 118.088 233.343C118.599 233.343 118.998 233.222 119.284 232.979C119.57 232.728 119.713 232.407 119.713 232.017C119.713 231.714 119.622 231.467 119.44 231.276C119.267 231.085 119.046 230.938 118.777 230.834C118.517 230.73 118.153 230.617 117.685 230.496C117.096 230.34 116.615 230.184 116.242 230.028C115.878 229.863 115.566 229.612 115.306 229.274C115.046 228.936 114.916 228.485 114.916 227.922C114.916 227.402 115.046 226.947 115.306 226.557C115.566 226.167 115.93 225.868 116.398 225.66C116.866 225.452 117.408 225.348 118.023 225.348C118.898 225.348 119.613 225.569 120.168 226.011C120.731 226.444 121.043 227.042 121.104 227.805H119.466C119.44 227.476 119.284 227.194 118.998 226.96C118.712 226.726 118.335 226.609 117.867 226.609C117.442 226.609 117.096 226.717 116.827 226.934C116.558 227.151 116.424 227.463 116.424 227.87C116.424 228.147 116.506 228.377 116.671 228.559C116.844 228.732 117.061 228.871 117.321 228.975C117.581 229.079 117.936 229.192 118.387 229.313C118.985 229.478 119.47 229.642 119.843 229.807C120.224 229.972 120.545 230.227 120.805 230.574C121.074 230.912 121.208 231.367 121.208 231.939C121.208 232.398 121.082 232.832 120.831 233.239C120.588 233.646 120.229 233.976 119.752 234.227C119.284 234.47 118.729 234.591 118.088 234.591ZM129.314 227.337V234.5H127.832V233.655C127.598 233.95 127.29 234.184 126.909 234.357C126.536 234.522 126.137 234.604 125.713 234.604C125.149 234.604 124.642 234.487 124.192 234.253C123.75 234.019 123.399 233.672 123.139 233.213C122.887 232.754 122.762 232.199 122.762 231.549V227.337H124.231V231.328C124.231 231.969 124.391 232.463 124.712 232.81C125.032 233.148 125.47 233.317 126.025 233.317C126.579 233.317 127.017 233.148 127.338 232.81C127.667 232.463 127.832 231.969 127.832 231.328V227.337H129.314ZM132.621 228.39C132.872 228.061 133.215 227.783 133.648 227.558C134.081 227.333 134.571 227.22 135.117 227.22C135.741 227.22 136.309 227.376 136.82 227.688C137.34 227.991 137.747 228.42 138.042 228.975C138.337 229.53 138.484 230.167 138.484 230.886C138.484 231.605 138.337 232.251 138.042 232.823C137.747 233.386 137.34 233.828 136.82 234.149C136.309 234.461 135.741 234.617 135.117 234.617C134.571 234.617 134.086 234.509 133.661 234.292C133.236 234.067 132.89 233.789 132.621 233.46V237.906H131.139V227.337H132.621V228.39ZM136.976 230.886C136.976 230.392 136.872 229.967 136.664 229.612C136.465 229.248 136.196 228.975 135.858 228.793C135.529 228.602 135.173 228.507 134.792 228.507C134.419 228.507 134.064 228.602 133.726 228.793C133.397 228.984 133.128 229.261 132.92 229.625C132.721 229.989 132.621 230.418 132.621 230.912C132.621 231.406 132.721 231.839 132.92 232.212C133.128 232.576 133.397 232.853 133.726 233.044C134.064 233.235 134.419 233.33 134.792 233.33C135.173 233.33 135.529 233.235 135.858 233.044C136.196 232.845 136.465 232.559 136.664 232.186C136.872 231.813 136.976 231.38 136.976 230.886Z" fill="#BCBCBC"/>
<path d="M207.491 230.743C207.491 231.012 207.473 231.254 207.439 231.471H201.966C202.009 232.043 202.221 232.502 202.603 232.849C202.984 233.196 203.452 233.369 204.007 233.369C204.804 233.369 205.367 233.035 205.697 232.368H207.296C207.079 233.027 206.685 233.568 206.113 233.993C205.549 234.409 204.847 234.617 204.007 234.617C203.322 234.617 202.707 234.465 202.161 234.162C201.623 233.85 201.199 233.417 200.887 232.862C200.583 232.299 200.432 231.649 200.432 230.912C200.432 230.175 200.579 229.53 200.874 228.975C201.177 228.412 201.597 227.978 202.135 227.675C202.681 227.372 203.305 227.22 204.007 227.22C204.683 227.22 205.285 227.367 205.814 227.662C206.342 227.957 206.754 228.373 207.049 228.91C207.343 229.439 207.491 230.05 207.491 230.743ZM205.944 230.275C205.935 229.729 205.74 229.291 205.359 228.962C204.977 228.633 204.505 228.468 203.942 228.468C203.43 228.468 202.993 228.633 202.629 228.962C202.265 229.283 202.048 229.72 201.979 230.275H205.944ZM210.301 224.88V234.5H208.819V224.88H210.301ZM218.682 230.743C218.682 231.012 218.665 231.254 218.63 231.471H213.157C213.2 232.043 213.413 232.502 213.794 232.849C214.175 233.196 214.643 233.369 215.198 233.369C215.995 233.369 216.559 233.035 216.888 232.368H218.487C218.27 233.027 217.876 233.568 217.304 233.993C216.741 234.409 216.039 234.617 215.198 234.617C214.513 234.617 213.898 234.465 213.352 234.162C212.815 233.85 212.39 233.417 212.078 232.862C211.775 232.299 211.623 231.649 211.623 230.912C211.623 230.175 211.77 229.53 212.065 228.975C212.368 228.412 212.789 227.978 213.326 227.675C213.872 227.372 214.496 227.22 215.198 227.22C215.874 227.22 216.476 227.367 217.005 227.662C217.534 227.957 217.945 228.373 218.24 228.91C218.535 229.439 218.682 230.05 218.682 230.743ZM217.135 230.275C217.126 229.729 216.931 229.291 216.55 228.962C216.169 228.633 215.696 228.468 215.133 228.468C214.622 228.468 214.184 228.633 213.82 228.962C213.456 229.283 213.239 229.72 213.17 230.275H217.135ZM219.516 230.912C219.516 230.175 219.664 229.53 219.958 228.975C220.262 228.412 220.678 227.978 221.206 227.675C221.735 227.372 222.342 227.22 223.026 227.22C223.893 227.22 224.608 227.428 225.171 227.844C225.743 228.251 226.129 228.836 226.328 229.599H224.729C224.599 229.244 224.391 228.966 224.105 228.767C223.819 228.568 223.46 228.468 223.026 228.468C222.42 228.468 221.934 228.685 221.57 229.118C221.215 229.543 221.037 230.141 221.037 230.912C221.037 231.683 221.215 232.286 221.57 232.719C221.934 233.152 222.42 233.369 223.026 233.369C223.884 233.369 224.452 232.992 224.729 232.238H226.328C226.12 232.966 225.73 233.547 225.158 233.98C224.586 234.405 223.876 234.617 223.026 234.617C222.342 234.617 221.735 234.465 221.206 234.162C220.678 233.85 220.262 233.417 219.958 232.862C219.664 232.299 219.516 231.649 219.516 230.912Z" fill="#BCBCBC"/>
<path d="M296.672 232.654H292.889L292.239 234.5H290.692L293.929 225.452H295.645L298.882 234.5H297.322L296.672 232.654ZM296.256 231.445L294.787 227.246L293.305 231.445H296.256ZM301.641 233.304H304.696V234.5H300.159V225.465H301.641V233.304ZM307.288 225.465V234.5H305.806V225.465H307.288ZM304.013 245.465V254.5H302.531V248.312L299.775 254.5H298.748L295.979 248.312V254.5H294.497V245.465H296.096L299.268 252.55L302.427 245.465H304.013Z" fill="#BCBCBC"/>
<path d="M375.156 225.465V231.978C375.156 232.784 374.909 233.421 374.415 233.889C373.929 234.357 373.288 234.591 372.491 234.591C371.693 234.591 371.048 234.357 370.554 233.889C370.068 233.421 369.826 232.784 369.826 231.978H371.321C371.329 232.377 371.429 232.693 371.62 232.927C371.819 233.161 372.109 233.278 372.491 233.278C372.872 233.278 373.162 233.161 373.362 232.927C373.561 232.684 373.661 232.368 373.661 231.978V225.465H375.156ZM384.002 230.743C384.002 231.012 383.984 231.254 383.95 231.471H378.477C378.52 232.043 378.732 232.502 379.114 232.849C379.495 233.196 379.963 233.369 380.518 233.369C381.315 233.369 381.878 233.035 382.208 232.368H383.807C383.59 233.027 383.196 233.568 382.624 233.993C382.06 234.409 381.358 234.617 380.518 234.617C379.833 234.617 379.218 234.465 378.672 234.162C378.134 233.85 377.71 233.417 377.398 232.862C377.094 232.299 376.943 231.649 376.943 230.912C376.943 230.175 377.09 229.53 377.385 228.975C377.688 228.412 378.108 227.978 378.646 227.675C379.192 227.372 379.816 227.22 380.518 227.22C381.194 227.22 381.796 227.367 382.325 227.662C382.853 227.957 383.265 228.373 383.56 228.91C383.854 229.439 384.002 230.05 384.002 230.743ZM382.455 230.275C382.446 229.729 382.251 229.291 381.87 228.962C381.488 228.633 381.016 228.468 380.453 228.468C379.941 228.468 379.504 228.633 379.14 228.962C378.776 229.283 378.559 229.72 378.49 230.275H382.455ZM391.817 227.337V234.5H390.335V233.655C390.101 233.95 389.793 234.184 389.412 234.357C389.039 234.522 388.641 234.604 388.216 234.604C387.653 234.604 387.146 234.487 386.695 234.253C386.253 234.019 385.902 233.672 385.642 233.213C385.391 232.754 385.265 232.199 385.265 231.549V227.337H386.734V231.328C386.734 231.969 386.894 232.463 387.215 232.81C387.536 233.148 387.973 233.317 388.528 233.317C389.083 233.317 389.52 233.148 389.841 232.81C390.17 232.463 390.335 231.969 390.335 231.328V227.337H391.817ZM396.711 230.873L399.025 234.5H397.348L395.801 232.069L394.345 234.5H392.798L395.112 230.977L392.798 227.337H394.475L396.022 229.768L397.478 227.337H399.025L396.711 230.873Z" fill="#BCBCBC"/>
<path d="M464.308 233.304H467.363V234.5H462.826V225.465H464.308V233.304ZM469.226 226.388C468.957 226.388 468.732 226.297 468.55 226.115C468.368 225.933 468.277 225.708 468.277 225.439C468.277 225.17 468.368 224.945 468.55 224.763C468.732 224.581 468.957 224.49 469.226 224.49C469.486 224.49 469.707 224.581 469.889 224.763C470.071 224.945 470.162 225.17 470.162 225.439C470.162 225.708 470.071 225.933 469.889 226.115C469.707 226.297 469.486 226.388 469.226 226.388ZM469.954 227.337V234.5H468.472V227.337H469.954ZM474.539 233.174L476.567 227.337H478.14L475.41 234.5H473.642L470.925 227.337H472.511L474.539 233.174ZM462.676 248.377C462.893 248.013 463.179 247.731 463.534 247.532C463.898 247.324 464.327 247.22 464.821 247.22V248.754H464.444C463.864 248.754 463.422 248.901 463.118 249.196C462.824 249.491 462.676 250.002 462.676 250.73V254.5H461.194V247.337H462.676V248.377ZM472.619 250.743C472.619 251.012 472.601 251.254 472.567 251.471H467.094C467.137 252.043 467.349 252.502 467.731 252.849C468.112 253.196 468.58 253.369 469.135 253.369C469.932 253.369 470.495 253.035 470.825 252.368H472.424C472.207 253.027 471.813 253.568 471.241 253.993C470.677 254.409 469.975 254.617 469.135 254.617C468.45 254.617 467.835 254.465 467.289 254.162C466.751 253.85 466.327 253.417 466.015 252.862C465.711 252.299 465.56 251.649 465.56 250.912C465.56 250.175 465.707 249.53 466.002 248.975C466.305 248.412 466.725 247.978 467.263 247.675C467.809 247.372 468.433 247.22 469.135 247.22C469.811 247.22 470.413 247.367 470.942 247.662C471.47 247.957 471.882 248.373 472.177 248.91C472.471 249.439 472.619 250.05 472.619 250.743ZM471.072 250.275C471.063 249.729 470.868 249.291 470.487 248.962C470.105 248.633 469.633 248.468 469.07 248.468C468.558 248.468 468.121 248.633 467.757 248.962C467.393 249.283 467.176 249.72 467.107 250.275H471.072ZM476.547 254.617C475.984 254.617 475.477 254.517 475.026 254.318C474.584 254.11 474.233 253.833 473.973 253.486C473.713 253.131 473.574 252.736 473.557 252.303H475.091C475.117 252.606 475.26 252.862 475.52 253.07C475.789 253.269 476.122 253.369 476.521 253.369C476.937 253.369 477.258 253.291 477.483 253.135C477.717 252.97 477.834 252.762 477.834 252.511C477.834 252.242 477.704 252.043 477.444 251.913C477.193 251.783 476.79 251.64 476.235 251.484C475.698 251.337 475.26 251.194 474.922 251.055C474.584 250.916 474.289 250.704 474.038 250.418C473.795 250.132 473.674 249.755 473.674 249.287C473.674 248.906 473.787 248.559 474.012 248.247C474.237 247.926 474.558 247.675 474.974 247.493C475.399 247.311 475.884 247.22 476.43 247.22C477.245 247.22 477.899 247.428 478.393 247.844C478.896 248.251 479.164 248.81 479.199 249.521H477.717C477.691 249.2 477.561 248.945 477.327 248.754C477.093 248.563 476.777 248.468 476.378 248.468C475.988 248.468 475.689 248.542 475.481 248.689C475.273 248.836 475.169 249.031 475.169 249.274C475.169 249.465 475.238 249.625 475.377 249.755C475.516 249.885 475.685 249.989 475.884 250.067C476.083 250.136 476.378 250.227 476.768 250.34C477.288 250.479 477.713 250.622 478.042 250.769C478.38 250.908 478.67 251.116 478.913 251.393C479.156 251.67 479.281 252.039 479.29 252.498C479.29 252.905 479.177 253.269 478.952 253.59C478.727 253.911 478.406 254.162 477.99 254.344C477.583 254.526 477.102 254.617 476.547 254.617Z" fill="#BCBCBC"/>
<path d="M554.902 232.654H551.119L550.469 234.5H548.922L552.159 225.452H553.875L557.112 234.5H555.552L554.902 232.654ZM554.486 231.445L553.017 227.246L551.535 231.445H554.486ZM557.896 230.912C557.896 230.175 558.043 229.53 558.338 228.975C558.641 228.412 559.057 227.978 559.586 227.675C560.115 227.372 560.721 227.22 561.406 227.22C562.273 227.22 562.988 227.428 563.551 227.844C564.123 228.251 564.509 228.836 564.708 229.599H563.109C562.979 229.244 562.771 228.966 562.485 228.767C562.199 228.568 561.839 228.468 561.406 228.468C560.799 228.468 560.314 228.685 559.95 229.118C559.595 229.543 559.417 230.141 559.417 230.912C559.417 231.683 559.595 232.286 559.95 232.719C560.314 233.152 560.799 233.369 561.406 233.369C562.264 233.369 562.832 232.992 563.109 232.238H564.708C564.5 232.966 564.11 233.547 563.538 233.98C562.966 234.405 562.255 234.617 561.406 234.617C560.721 234.617 560.115 234.465 559.586 234.162C559.057 233.85 558.641 233.417 558.338 232.862C558.043 232.299 557.896 231.649 557.896 230.912Z" fill="#BCBCBC"/>
<path d="M638.56 225.426V234.5H636.74V228.598L634.309 234.5H632.931L630.487 228.598V234.5H628.667V225.426H630.734L633.62 232.173L636.506 225.426H638.56ZM646.925 230.743C646.925 231.003 646.907 231.237 646.873 231.445H641.608C641.651 231.965 641.833 232.372 642.154 232.667C642.474 232.962 642.869 233.109 643.337 233.109C644.013 233.109 644.494 232.819 644.78 232.238H646.743C646.535 232.931 646.136 233.503 645.547 233.954C644.957 234.396 644.234 234.617 643.376 234.617C642.682 234.617 642.058 234.465 641.504 234.162C640.958 233.85 640.529 233.412 640.217 232.849C639.913 232.286 639.762 231.636 639.762 230.899C639.762 230.154 639.913 229.499 640.217 228.936C640.52 228.373 640.945 227.939 641.491 227.636C642.037 227.333 642.665 227.181 643.376 227.181C644.06 227.181 644.671 227.328 645.209 227.623C645.755 227.918 646.175 228.338 646.47 228.884C646.773 229.421 646.925 230.041 646.925 230.743ZM645.04 230.223C645.031 229.755 644.862 229.382 644.533 229.105C644.203 228.819 643.8 228.676 643.324 228.676C642.873 228.676 642.492 228.815 642.18 229.092C641.876 229.361 641.69 229.738 641.621 230.223H645.04ZM654.922 227.298V234.5H653.089V233.59C652.855 233.902 652.547 234.149 652.166 234.331C651.793 234.504 651.386 234.591 650.944 234.591C650.381 234.591 649.882 234.474 649.449 234.24C649.016 233.997 648.673 233.646 648.422 233.187C648.179 232.719 648.058 232.164 648.058 231.523V227.298H649.878V231.263C649.878 231.835 650.021 232.277 650.307 232.589C650.593 232.892 650.983 233.044 651.477 233.044C651.98 233.044 652.374 232.892 652.66 232.589C652.946 232.277 653.089 231.835 653.089 231.263V227.298H654.922ZM634.417 248.351C634.651 248.004 634.971 247.723 635.379 247.506C635.795 247.289 636.267 247.181 636.796 247.181C637.411 247.181 637.966 247.333 638.46 247.636C638.962 247.939 639.357 248.373 639.643 248.936C639.937 249.491 640.085 250.136 640.085 250.873C640.085 251.61 639.937 252.264 639.643 252.836C639.357 253.399 638.962 253.837 638.46 254.149C637.966 254.461 637.411 254.617 636.796 254.617C636.258 254.617 635.786 254.513 635.379 254.305C634.98 254.088 634.659 253.811 634.417 253.473V254.5H632.597V244.88H634.417V248.351ZM638.226 250.873C638.226 250.44 638.135 250.067 637.953 249.755C637.779 249.434 637.545 249.192 637.251 249.027C636.965 248.862 636.653 248.78 636.315 248.78C635.985 248.78 635.673 248.867 635.379 249.04C635.093 249.205 634.859 249.447 634.677 249.768C634.503 250.089 634.417 250.466 634.417 250.899C634.417 251.332 634.503 251.709 634.677 252.03C634.859 252.351 635.093 252.598 635.379 252.771C635.673 252.936 635.985 253.018 636.315 253.018C636.653 253.018 636.965 252.931 637.251 252.758C637.545 252.585 637.779 252.338 637.953 252.017C638.135 251.696 638.226 251.315 638.226 250.873ZM643.097 244.88V254.5H641.277V244.88H643.097ZM651.46 250.743C651.46 251.003 651.443 251.237 651.408 251.445H646.143C646.187 251.965 646.369 252.372 646.689 252.667C647.01 252.962 647.404 253.109 647.872 253.109C648.548 253.109 649.029 252.819 649.315 252.238H651.278C651.07 252.931 650.672 253.503 650.082 253.954C649.493 254.396 648.769 254.617 647.911 254.617C647.218 254.617 646.594 254.465 646.039 254.162C645.493 253.85 645.064 253.412 644.752 252.849C644.449 252.286 644.297 251.636 644.297 250.899C644.297 250.154 644.449 249.499 644.752 248.936C645.056 248.373 645.48 247.939 646.026 247.636C646.572 247.333 647.201 247.181 647.911 247.181C648.596 247.181 649.207 247.328 649.744 247.623C650.29 247.918 650.711 248.338 651.005 248.884C651.309 249.421 651.46 250.041 651.46 250.743ZM649.575 250.223C649.567 249.755 649.398 249.382 649.068 249.105C648.739 248.819 648.336 248.676 647.859 248.676C647.409 248.676 647.027 248.815 646.715 249.092C646.412 249.361 646.226 249.738 646.156 250.223H649.575Z" fill="#1F1515"/>
<path d="M725.458 225.465V234.5H723.976V228.312L721.22 234.5H720.193L717.424 228.312V234.5H715.942V225.465H717.541L720.713 232.55L723.872 225.465H725.458ZM726.782 230.886C726.782 230.167 726.929 229.53 727.224 228.975C727.527 228.42 727.934 227.991 728.446 227.688C728.966 227.376 729.538 227.22 730.162 227.22C730.725 227.22 731.215 227.333 731.631 227.558C732.055 227.775 732.393 228.048 732.645 228.377V227.337H734.14V234.5H732.645V233.434C732.393 233.772 732.051 234.054 731.618 234.279C731.184 234.504 730.69 234.617 730.136 234.617C729.52 234.617 728.957 234.461 728.446 234.149C727.934 233.828 727.527 233.386 727.224 232.823C726.929 232.251 726.782 231.605 726.782 230.886ZM732.645 230.912C732.645 230.418 732.541 229.989 732.333 229.625C732.133 229.261 731.869 228.984 731.54 228.793C731.21 228.602 730.855 228.507 730.474 228.507C730.092 228.507 729.737 228.602 729.408 228.793C729.078 228.975 728.81 229.248 728.602 229.612C728.402 229.967 728.303 230.392 728.303 230.886C728.303 231.38 728.402 231.813 728.602 232.186C728.81 232.559 729.078 232.845 729.408 233.044C729.746 233.235 730.101 233.33 730.474 233.33C730.855 233.33 731.21 233.235 731.54 233.044C731.869 232.853 732.133 232.576 732.333 232.212C732.541 231.839 732.645 231.406 732.645 230.912ZM738.79 230.925L742.092 234.5H740.09L737.438 231.419V234.5H735.956V224.88H737.438V230.47L740.038 227.337H742.092L738.79 230.925ZM723.605 250.743C723.605 251.012 723.588 251.254 723.553 251.471H718.08C718.123 252.043 718.336 252.502 718.717 252.849C719.098 253.196 719.566 253.369 720.121 253.369C720.918 253.369 721.482 253.035 721.811 252.368H723.41C723.193 253.027 722.799 253.568 722.227 253.993C721.664 254.409 720.962 254.617 720.121 254.617C719.436 254.617 718.821 254.465 718.275 254.162C717.738 253.85 717.313 253.417 717.001 252.862C716.698 252.299 716.546 251.649 716.546 250.912C716.546 250.175 716.693 249.53 716.988 248.975C717.291 248.412 717.712 247.978 718.249 247.675C718.795 247.372 719.419 247.22 720.121 247.22C720.797 247.22 721.399 247.367 721.928 247.662C722.457 247.957 722.868 248.373 723.163 248.91C723.458 249.439 723.605 250.05 723.605 250.743ZM722.058 250.275C722.049 249.729 721.854 249.291 721.473 248.962C721.092 248.633 720.619 248.468 720.056 248.468C719.545 248.468 719.107 248.633 718.743 248.962C718.379 249.283 718.162 249.72 718.093 250.275H722.058ZM731.42 247.337V254.5H729.938V253.655C729.704 253.95 729.397 254.184 729.015 254.357C728.643 254.522 728.244 254.604 727.819 254.604C727.256 254.604 726.749 254.487 726.298 254.253C725.856 254.019 725.505 253.672 725.245 253.213C724.994 252.754 724.868 252.199 724.868 251.549V247.337H726.337V251.328C726.337 251.969 726.498 252.463 726.818 252.81C727.139 253.148 727.577 253.317 728.131 253.317C728.686 253.317 729.124 253.148 729.444 252.81C729.774 252.463 729.938 251.969 729.938 251.328V247.337H731.42ZM734.728 248.39C734.979 248.061 735.321 247.783 735.755 247.558C736.188 247.333 736.678 247.22 737.224 247.22C737.848 247.22 738.415 247.376 738.927 247.688C739.447 247.991 739.854 248.42 740.149 248.975C740.443 249.53 740.591 250.167 740.591 250.886C740.591 251.605 740.443 252.251 740.149 252.823C739.854 253.386 739.447 253.828 738.927 254.149C738.415 254.461 737.848 254.617 737.224 254.617C736.678 254.617 736.192 254.509 735.768 254.292C735.343 254.067 734.996 253.789 734.728 253.46V257.906H733.246V247.337H734.728V248.39ZM739.083 250.886C739.083 250.392 738.979 249.967 738.771 249.612C738.571 249.248 738.303 248.975 737.965 248.793C737.635 248.602 737.28 248.507 736.899 248.507C736.526 248.507 736.171 248.602 735.833 248.793C735.503 248.984 735.235 249.261 735.027 249.625C734.827 249.989 734.728 250.418 734.728 250.912C734.728 251.406 734.827 251.839 735.027 252.212C735.235 252.576 735.503 252.853 735.833 253.044C736.171 253.235 736.526 253.33 736.899 253.33C737.28 253.33 737.635 253.235 737.965 253.044C738.303 252.845 738.571 252.559 738.771 252.186C738.979 251.813 739.083 251.38 739.083 250.886Z" fill="#BCBCBC"/>
<path d="M812.267 228.156C812.267 228.615 812.159 229.049 811.942 229.456C811.726 229.863 811.379 230.197 810.902 230.457C810.426 230.708 809.815 230.834 809.069 230.834H807.431V234.5H805.949V225.465H809.069C809.763 225.465 810.348 225.586 810.824 225.829C811.31 226.063 811.669 226.384 811.903 226.791C812.146 227.198 812.267 227.653 812.267 228.156ZM809.069 229.625C809.633 229.625 810.053 229.499 810.33 229.248C810.608 228.988 810.746 228.624 810.746 228.156C810.746 227.168 810.187 226.674 809.069 226.674H807.431V229.625H809.069ZM814.305 226.388C814.036 226.388 813.811 226.297 813.629 226.115C813.447 225.933 813.356 225.708 813.356 225.439C813.356 225.17 813.447 224.945 813.629 224.763C813.811 224.581 814.036 224.49 814.305 224.49C814.565 224.49 814.786 224.581 814.968 224.763C815.15 224.945 815.241 225.17 815.241 225.439C815.241 225.708 815.15 225.933 814.968 226.115C814.786 226.297 814.565 226.388 814.305 226.388ZM815.033 227.337V234.5H813.551V227.337H815.033ZM823.414 230.743C823.414 231.012 823.396 231.254 823.362 231.471H817.889C817.932 232.043 818.144 232.502 818.526 232.849C818.907 233.196 819.375 233.369 819.93 233.369C820.727 233.369 821.29 233.035 821.62 232.368H823.219C823.002 233.027 822.608 233.568 822.036 233.993C821.472 234.409 820.77 234.617 819.93 234.617C819.245 234.617 818.63 234.465 818.084 234.162C817.546 233.85 817.122 233.417 816.81 232.862C816.506 232.299 816.355 231.649 816.355 230.912C816.355 230.175 816.502 229.53 816.797 228.975C817.1 228.412 817.52 227.978 818.058 227.675C818.604 227.372 819.228 227.22 819.93 227.22C820.606 227.22 821.208 227.367 821.737 227.662C822.265 227.957 822.677 228.373 822.972 228.91C823.266 229.439 823.414 230.05 823.414 230.743ZM821.867 230.275C821.858 229.729 821.663 229.291 821.282 228.962C820.9 228.633 820.428 228.468 819.865 228.468C819.353 228.468 818.916 228.633 818.552 228.962C818.188 229.283 817.971 229.72 817.902 230.275H821.867ZM807.072 250.912C807.072 250.175 807.22 249.53 807.514 248.975C807.818 248.412 808.234 247.978 808.762 247.675C809.291 247.372 809.898 247.22 810.582 247.22C811.449 247.22 812.164 247.428 812.727 247.844C813.299 248.251 813.685 248.836 813.884 249.599H812.285C812.155 249.244 811.947 248.966 811.661 248.767C811.375 248.568 811.016 248.468 810.582 248.468C809.976 248.468 809.49 248.685 809.126 249.118C808.771 249.543 808.593 250.141 808.593 250.912C808.593 251.683 808.771 252.286 809.126 252.719C809.49 253.152 809.976 253.369 810.582 253.369C811.44 253.369 812.008 252.992 812.285 252.238H813.884C813.676 252.966 813.286 253.547 812.714 253.98C812.142 254.405 811.432 254.617 810.582 254.617C809.898 254.617 809.291 254.465 808.762 254.162C808.234 253.85 807.818 253.417 807.514 252.862C807.22 252.299 807.072 251.649 807.072 250.912ZM821.796 250.743C821.796 251.012 821.779 251.254 821.744 251.471H816.271C816.315 252.043 816.527 252.502 816.908 252.849C817.29 253.196 817.758 253.369 818.312 253.369C819.11 253.369 819.673 253.035 820.002 252.368H821.601C821.385 253.027 820.99 253.568 820.418 253.993C819.855 254.409 819.153 254.617 818.312 254.617C817.628 254.617 817.012 254.465 816.466 254.162C815.929 253.85 815.504 253.417 815.192 252.862C814.889 252.299 814.737 251.649 814.737 250.912C814.737 250.175 814.885 249.53 815.179 248.975C815.483 248.412 815.903 247.978 816.44 247.675C816.986 247.372 817.61 247.22 818.312 247.22C818.988 247.22 819.591 247.367 820.119 247.662C820.648 247.957 821.06 248.373 821.354 248.91C821.649 249.439 821.796 250.05 821.796 250.743ZM820.249 250.275C820.241 249.729 820.046 249.291 819.664 248.962C819.283 248.633 818.811 248.468 818.247 248.468C817.736 248.468 817.298 248.633 816.934 248.962C816.57 249.283 816.354 249.72 816.284 250.275H820.249Z" fill="#BCBCBC"/>
<path d="M898.249 225.465L894.856 234.5H893.14L889.734 225.465H891.32L893.998 232.979L896.689 225.465H898.249ZM905.924 230.743C905.924 231.012 905.906 231.254 905.872 231.471H900.399C900.442 232.043 900.654 232.502 901.036 232.849C901.417 233.196 901.885 233.369 902.44 233.369C903.237 233.369 903.8 233.035 904.13 232.368H905.729C905.512 233.027 905.118 233.568 904.546 233.993C903.982 234.409 903.28 234.617 902.44 234.617C901.755 234.617 901.14 234.465 900.594 234.162C900.056 233.85 899.632 233.417 899.32 232.862C899.016 232.299 898.865 231.649 898.865 230.912C898.865 230.175 899.012 229.53 899.307 228.975C899.61 228.412 900.03 227.978 900.568 227.675C901.114 227.372 901.738 227.22 902.44 227.22C903.116 227.22 903.718 227.367 904.247 227.662C904.775 227.957 905.187 228.373 905.482 228.91C905.776 229.439 905.924 230.05 905.924 230.743ZM904.377 230.275C904.368 229.729 904.173 229.291 903.792 228.962C903.41 228.633 902.938 228.468 902.375 228.468C901.863 228.468 901.426 228.633 901.062 228.962C900.698 229.283 900.481 229.72 900.412 230.275H904.377ZM908.981 228.546V232.511C908.981 232.78 909.042 232.975 909.163 233.096C909.293 233.209 909.51 233.265 909.813 233.265H910.723V234.5H909.553C908.886 234.5 908.374 234.344 908.019 234.032C907.664 233.72 907.486 233.213 907.486 232.511V228.546H906.641V227.337H907.486V225.556H908.981V227.337H910.723V228.546H908.981ZM897.14 250.743C897.14 251.012 897.123 251.254 897.088 251.471H891.615C891.658 252.043 891.871 252.502 892.252 252.849C892.633 253.196 893.101 253.369 893.656 253.369C894.453 253.369 895.017 253.035 895.346 252.368H896.945C896.728 253.027 896.334 253.568 895.762 253.993C895.199 254.409 894.497 254.617 893.656 254.617C892.971 254.617 892.356 254.465 891.81 254.162C891.273 253.85 890.848 253.417 890.536 252.862C890.233 252.299 890.081 251.649 890.081 250.912C890.081 250.175 890.228 249.53 890.523 248.975C890.826 248.412 891.247 247.978 891.784 247.675C892.33 247.372 892.954 247.22 893.656 247.22C894.332 247.22 894.934 247.367 895.463 247.662C895.992 247.957 896.403 248.373 896.698 248.91C896.993 249.439 897.14 250.05 897.14 250.743ZM895.593 250.275C895.584 249.729 895.389 249.291 895.008 248.962C894.627 248.633 894.154 248.468 893.591 248.468C893.08 248.468 892.642 248.633 892.278 248.962C891.914 249.283 891.697 249.72 891.628 250.275H895.593ZM907.139 247.22C907.703 247.22 908.205 247.337 908.647 247.571C909.098 247.805 909.449 248.152 909.7 248.611C909.96 249.07 910.09 249.625 910.09 250.275V254.5H908.621V250.496C908.621 249.855 908.461 249.365 908.14 249.027C907.82 248.68 907.382 248.507 906.827 248.507C906.273 248.507 905.831 248.68 905.501 249.027C905.181 249.365 905.02 249.855 905.02 250.496V254.5H903.551V250.496C903.551 249.855 903.391 249.365 903.07 249.027C902.75 248.68 902.312 248.507 901.757 248.507C901.203 248.507 900.761 248.68 900.431 249.027C900.111 249.365 899.95 249.855 899.95 250.496V254.5H898.468V247.337H899.95V248.156C900.193 247.861 900.501 247.632 900.873 247.467C901.246 247.302 901.645 247.22 902.069 247.22C902.641 247.22 903.153 247.341 903.603 247.584C904.054 247.827 904.401 248.178 904.643 248.637C904.86 248.204 905.198 247.861 905.657 247.61C906.117 247.35 906.611 247.22 907.139 247.22ZM897.319 270.743C897.319 271.012 897.302 271.254 897.267 271.471H891.794C891.838 272.043 892.05 272.502 892.431 272.849C892.813 273.196 893.281 273.369 893.835 273.369C894.633 273.369 895.196 273.035 895.525 272.368H897.124C896.908 273.027 896.513 273.568 895.941 273.993C895.378 274.409 894.676 274.617 893.835 274.617C893.151 274.617 892.535 274.465 891.989 274.162C891.452 273.85 891.027 273.417 890.715 272.862C890.412 272.299 890.26 271.649 890.26 270.912C890.26 270.175 890.408 269.53 890.702 268.975C891.006 268.412 891.426 267.978 891.963 267.675C892.509 267.372 893.133 267.22 893.835 267.22C894.511 267.22 895.114 267.367 895.642 267.662C896.171 267.957 896.583 268.373 896.877 268.91C897.172 269.439 897.319 270.05 897.319 270.743ZM895.772 270.275C895.764 269.729 895.569 269.291 895.187 268.962C894.806 268.633 894.334 268.468 893.77 268.468C893.259 268.468 892.821 268.633 892.457 268.962C892.093 269.283 891.877 269.72 891.807 270.275H895.772ZM902.262 267.22C902.825 267.22 903.328 267.337 903.77 267.571C904.22 267.805 904.571 268.152 904.823 268.611C905.074 269.07 905.2 269.625 905.2 270.275V274.5H903.731V270.496C903.731 269.855 903.57 269.365 903.25 269.027C902.929 268.68 902.491 268.507 901.937 268.507C901.382 268.507 900.94 268.68 900.611 269.027C900.29 269.365 900.13 269.855 900.13 270.496V274.5H898.648V267.337H900.13V268.156C900.372 267.861 900.68 267.632 901.053 267.467C901.434 267.302 901.837 267.22 902.262 267.22ZM908.689 268.546V272.511C908.689 272.78 908.75 272.975 908.871 273.096C909.001 273.209 909.218 273.265 909.521 273.265H910.431V274.5H909.261C908.594 274.5 908.082 274.344 907.727 274.032C907.372 273.72 907.194 273.213 907.194 272.511V268.546H906.349V267.337H907.194V265.556H908.689V267.337H910.431V268.546H908.689Z" fill="#BCBCBC"/>
<path d="M978.019 234.591C977.413 234.591 976.867 234.487 976.381 234.279C975.896 234.062 975.515 233.759 975.237 233.369C974.96 232.979 974.821 232.524 974.821 232.004H976.407C976.442 232.394 976.594 232.715 976.862 232.966C977.14 233.217 977.525 233.343 978.019 233.343C978.531 233.343 978.929 233.222 979.215 232.979C979.501 232.728 979.644 232.407 979.644 232.017C979.644 231.714 979.553 231.467 979.371 231.276C979.198 231.085 978.977 230.938 978.708 230.834C978.448 230.73 978.084 230.617 977.616 230.496C977.027 230.34 976.546 230.184 976.173 230.028C975.809 229.863 975.497 229.612 975.237 229.274C974.977 228.936 974.847 228.485 974.847 227.922C974.847 227.402 974.977 226.947 975.237 226.557C975.497 226.167 975.861 225.868 976.329 225.66C976.797 225.452 977.339 225.348 977.954 225.348C978.83 225.348 979.545 225.569 980.099 226.011C980.663 226.444 980.975 227.042 981.035 227.805H979.397C979.371 227.476 979.215 227.194 978.929 226.96C978.643 226.726 978.266 226.609 977.798 226.609C977.374 226.609 977.027 226.717 976.758 226.934C976.49 227.151 976.355 227.463 976.355 227.87C976.355 228.147 976.438 228.377 976.602 228.559C976.776 228.732 976.992 228.871 977.252 228.975C977.512 229.079 977.868 229.192 978.318 229.313C978.916 229.478 979.402 229.642 979.774 229.807C980.156 229.972 980.476 230.227 980.736 230.574C981.005 230.912 981.139 231.367 981.139 231.939C981.139 232.398 981.014 232.832 980.762 233.239C980.52 233.646 980.16 233.976 979.683 234.227C979.215 234.47 978.661 234.591 978.019 234.591ZM982.264 230.886C982.264 230.167 982.411 229.53 982.706 228.975C983.009 228.42 983.417 227.991 983.928 227.688C984.448 227.376 985.02 227.22 985.644 227.22C986.207 227.22 986.697 227.333 987.113 227.558C987.538 227.775 987.876 228.048 988.127 228.377V227.337H989.622V234.5H988.127V233.434C987.876 233.772 987.533 234.054 987.1 234.279C986.667 234.504 986.173 234.617 985.618 234.617C985.003 234.617 984.439 234.461 983.928 234.149C983.417 233.828 983.009 233.386 982.706 232.823C982.411 232.251 982.264 231.605 982.264 230.886ZM988.127 230.912C988.127 230.418 988.023 229.989 987.815 229.625C987.616 229.261 987.351 228.984 987.022 228.793C986.693 228.602 986.337 228.507 985.956 228.507C985.575 228.507 985.219 228.602 984.89 228.793C984.561 228.975 984.292 229.248 984.084 229.612C983.885 229.967 983.785 230.392 983.785 230.886C983.785 231.38 983.885 231.813 984.084 232.186C984.292 232.559 984.561 232.845 984.89 233.044C985.228 233.235 985.583 233.33 985.956 233.33C986.337 233.33 986.693 233.235 987.022 233.044C987.351 232.853 987.616 232.576 987.815 232.212C988.023 231.839 988.127 231.406 988.127 230.912ZM990.945 230.912C990.945 230.175 991.092 229.53 991.387 228.975C991.69 228.412 992.106 227.978 992.635 227.675C993.163 227.372 993.77 227.22 994.455 227.22C995.321 227.22 996.036 227.428 996.6 227.844C997.172 228.251 997.557 228.836 997.757 229.599H996.158C996.028 229.244 995.82 228.966 995.534 228.767C995.248 228.568 994.888 228.468 994.455 228.468C993.848 228.468 993.363 228.685 992.999 229.118C992.643 229.543 992.466 230.141 992.466 230.912C992.466 231.683 992.643 232.286 992.999 232.719C993.363 233.152 993.848 233.369 994.455 233.369C995.313 233.369 995.88 232.992 996.158 232.238H997.757C997.549 232.966 997.159 233.547 996.587 233.98C996.015 234.405 995.304 234.617 994.455 234.617C993.77 234.617 993.163 234.465 992.635 234.162C992.106 233.85 991.69 233.417 991.387 232.862C991.092 232.299 990.945 231.649 990.945 230.912Z" fill="#BCBCBC"/>
<rect x="12.4326" y="96.5" width="56.6335" height="111" rx="16" fill="#FAFAFA"/>
<g filter="url(#filter0_d_425_1879)">
<rect x="12.4326" y="126.5" width="56.3586" height="81" rx="16" fill="#243645"/>
</g>
<rect x="98.5078" y="65.5" width="56.6335" height="142" rx="16" fill="#FAFAFA"/>
<g filter="url(#filter1_d_425_1879)">
<rect x="98.5078" y="101.5" width="56.3586" height="106" rx="16" fill="#243645"/>
</g>
<rect x="184.16" y="31.5" width="56.6335" height="176" rx="16" fill="#FAFAFA"/>
<g filter="url(#filter2_d_425_1879)">
<rect x="184.583" y="80.5" width="56.3586" height="127" rx="16" fill="#243645"/>
</g>
<rect x="270.024" y="76.5" width="56.6335" height="131" rx="16" fill="#FAFAFA"/>
<g filter="url(#filter3_d_425_1879)">
<rect x="269.633" y="111.5" width="57.3834" height="96" rx="16" fill="#243645"/>
</g>
<rect x="355.887" y="113.5" width="56.6335" height="94" rx="16" fill="#FAFAFA"/>
<g filter="url(#filter4_d_425_1879)">
<rect x="355.708" y="146.5" width="56.3586" height="61" rx="16" fill="#243645"/>
</g>
<rect x="441.751" y="76.5" width="56.6335" height="131" rx="16" fill="#FAFAFA"/>
<g filter="url(#filter5_d_425_1879)">
<rect x="441.783" y="113.5" width="56.3586" height="94" rx="16" fill="#243645"/>
</g>
<rect x="527.615" y="65.5" width="56.6335" height="142" rx="16" fill="#FAFAFA"/>
<g filter="url(#filter6_d_425_1879)">
<rect x="527.858" y="97.5" width="56.3586" height="110" rx="16" fill="#243645"/>
</g>
<rect x="604.711" y="0.5" width="73.0755" height="207" rx="16" fill="#FAFAFA"/>
<g filter="url(#filter7_d_425_1879)">
<rect x="604.711" y="71.5" width="72.7539" height="136" rx="16" fill="#243645"/>
</g>
<rect x="699.343" y="26.5" width="56.6335" height="181" rx="16" fill="#FAFAFA"/>
<g filter="url(#filter8_d_425_1879)">
<rect x="698.983" y="90.5" width="57.3834" height="117" rx="16" fill="#243645"/>
</g>
<rect x="785.206" y="55.5" width="56.6335" height="152" rx="16" fill="#FAFAFA"/>
<g filter="url(#filter9_d_425_1879)">
<rect x="785.059" y="113.5" width="56.3586" height="94" rx="16" fill="#243645"/>
</g>
<rect x="871.069" y="96.5" width="56.6335" height="111" rx="16" fill="#FAFAFA"/>
<g filter="url(#filter10_d_425_1879)">
<rect x="871.134" y="131.5" width="56.3586" height="76" rx="16" fill="#243645"/>
</g>
<rect x="956.934" y="39.5" width="56.6335" height="168" rx="16" fill="#FAFAFA"/>
<g filter="url(#filter11_d_425_1879)">
<rect x="957.208" y="76.5" width="56.3586" height="131" rx="16" fill="#243645"/>
</g>
<defs>
<filter id="filter0_d_425_1879" x="0.432617" y="122.5" width="80.3584" height="105" filterUnits="userSpaceOnUse" color-interpolation-filters="sRGB">
<feFlood flood-opacity="0" result="BackgroundImageFix"/>
<feColorMatrix in="SourceAlpha" type="matrix" values="0 0 0 0 0 0 0 0 0 0 0 0 0 0 0 0 0 0 127 0" result="hardAlpha"/>
<feOffset dy="8"/>
<feGaussianBlur stdDeviation="6"/>
<feComposite in2="hardAlpha" operator="out"/>
<feColorMatrix type="matrix" values="0 0 0 0 0.52849 0 0 0 0 0.566891 0 0 0 0 0.9125 0 0 0 0.3 0"/>
<feBlend mode="normal" in2="BackgroundImageFix" result="effect1_dropShadow_425_1879"/>
<feBlend mode="normal" in="SourceGraphic" in2="effect1_dropShadow_425_1879" result="shape"/>
</filter>
<filter id="filter1_d_425_1879" x="86.5078" y="97.5" width="80.3584" height="130" filterUnits="userSpaceOnUse" color-interpolation-filters="sRGB">
<feFlood flood-opacity="0" result="BackgroundImageFix"/>
<feColorMatrix in="SourceAlpha" type="matrix" values="0 0 0 0 0 0 0 0 0 0 0 0 0 0 0 0 0 0 127 0" result="hardAlpha"/>
<feOffset dy="8"/>
<feGaussianBlur stdDeviation="6"/>
<feComposite in2="hardAlpha" operator="out"/>
<feColorMatrix type="matrix" values="0 0 0 0 0.52849 0 0 0 0 0.566891 0 0 0 0 0.9125 0 0 0 0.3 0"/>
<feBlend mode="normal" in2="BackgroundImageFix" result="effect1_dropShadow_425_1879"/>
<feBlend mode="normal" in="SourceGraphic" in2="effect1_dropShadow_425_1879" result="shape"/>
</filter>
<filter id="filter2_d_425_1879" x="172.583" y="76.5" width="80.3584" height="151" filterUnits="userSpaceOnUse" color-interpolation-filters="sRGB">
<feFlood flood-opacity="0" result="BackgroundImageFix"/>
<feColorMatrix in="SourceAlpha" type="matrix" values="0 0 0 0 0 0 0 0 0 0 0 0 0 0 0 0 0 0 127 0" result="hardAlpha"/>
<feOffset dy="8"/>
<feGaussianBlur stdDeviation="6"/>
<feComposite in2="hardAlpha" operator="out"/>
<feColorMatrix type="matrix" values="0 0 0 0 0.52849 0 0 0 0 0.566891 0 0 0 0 0.9125 0 0 0 0.3 0"/>
<feBlend mode="normal" in2="BackgroundImageFix" result="effect1_dropShadow_425_1879"/>
<feBlend mode="normal" in="SourceGraphic" in2="effect1_dropShadow_425_1879" result="shape"/>
</filter>
<filter id="filter3_d_425_1879" x="257.633" y="107.5" width="81.3838" height="120" filterUnits="userSpaceOnUse" color-interpolation-filters="sRGB">
<feFlood flood-opacity="0" result="BackgroundImageFix"/>
<feColorMatrix in="SourceAlpha" type="matrix" values="0 0 0 0 0 0 0 0 0 0 0 0 0 0 0 0 0 0 127 0" result="hardAlpha"/>
<feOffset dy="8"/>
<feGaussianBlur stdDeviation="6"/>
<feComposite in2="hardAlpha" operator="out"/>
<feColorMatrix type="matrix" values="0 0 0 0 0.52849 0 0 0 0 0.566891 0 0 0 0 0.9125 0 0 0 0.3 0"/>
<feBlend mode="normal" in2="BackgroundImageFix" result="effect1_dropShadow_425_1879"/>
<feBlend mode="normal" in="SourceGraphic" in2="effect1_dropShadow_425_1879" result="shape"/>
</filter>
<filter id="filter4_d_425_1879" x="343.708" y="142.5" width="80.3584" height="85" filterUnits="userSpaceOnUse" color-interpolation-filters="sRGB">
<feFlood flood-opacity="0" result="BackgroundImageFix"/>
<feColorMatrix in="SourceAlpha" type="matrix" values="0 0 0 0 0 0 0 0 0 0 0 0 0 0 0 0 0 0 127 0" result="hardAlpha"/>
<feOffset dy="8"/>
<feGaussianBlur stdDeviation="6"/>
<feComposite in2="hardAlpha" operator="out"/>
<feColorMatrix type="matrix" values="0 0 0 0 0.52849 0 0 0 0 0.566891 0 0 0 0 0.9125 0 0 0 0.3 0"/>
<feBlend mode="normal" in2="BackgroundImageFix" result="effect1_dropShadow_425_1879"/>
<feBlend mode="normal" in="SourceGraphic" in2="effect1_dropShadow_425_1879" result="shape"/>
</filter>
<filter id="filter5_d_425_1879" x="429.783" y="109.5" width="80.3584" height="118" filterUnits="userSpaceOnUse" color-interpolation-filters="sRGB">
<feFlood flood-opacity="0" result="BackgroundImageFix"/>
<feColorMatrix in="SourceAlpha" type="matrix" values="0 0 0 0 0 0 0 0 0 0 0 0 0 0 0 0 0 0 127 0" result="hardAlpha"/>
<feOffset dy="8"/>
<feGaussianBlur stdDeviation="6"/>
<feComposite in2="hardAlpha" operator="out"/>
<feColorMatrix type="matrix" values="0 0 0 0 0.52849 0 0 0 0 0.566891 0 0 0 0 0.9125 0 0 0 0.3 0"/>
<feBlend mode="normal" in2="BackgroundImageFix" result="effect1_dropShadow_425_1879"/>
<feBlend mode="normal" in="SourceGraphic" in2="effect1_dropShadow_425_1879" result="shape"/>
</filter>
<filter id="filter6_d_425_1879" x="515.858" y="93.5" width="80.3584" height="134" filterUnits="userSpaceOnUse" color-interpolation-filters="sRGB">
<feFlood flood-opacity="0" result="BackgroundImageFix"/>
<feColorMatrix in="SourceAlpha" type="matrix" values="0 0 0 0 0 0 0 0 0 0 0 0 0 0 0 0 0 0 127 0" result="hardAlpha"/>
<feOffset dy="8"/>
<feGaussianBlur stdDeviation="6"/>
<feComposite in2="hardAlpha" operator="out"/>
<feColorMatrix type="matrix" values="0 0 0 0 0.52849 0 0 0 0 0.566891 0 0 0 0 0.9125 0 0 0 0.3 0"/>
<feBlend mode="normal" in2="BackgroundImageFix" result="effect1_dropShadow_425_1879"/>
<feBlend mode="normal" in="SourceGraphic" in2="effect1_dropShadow_425_1879" result="shape"/>
</filter>
<filter id="filter7_d_425_1879" x="592.711" y="67.5" width="96.7539" height="160" filterUnits="userSpaceOnUse" color-interpolation-filters="sRGB">
<feFlood flood-opacity="0" result="BackgroundImageFix"/>
<feColorMatrix in="SourceAlpha" type="matrix" values="0 0 0 0 0 0 0 0 0 0 0 0 0 0 0 0 0 0 127 0" result="hardAlpha"/>
<feOffset dy="8"/>
<feGaussianBlur stdDeviation="6"/>
<feComposite in2="hardAlpha" operator="out"/>
<feColorMatrix type="matrix" values="0 0 0 0 0.52849 0 0 0 0 0.566891 0 0 0 0 0.9125 0 0 0 0.3 0"/>
<feBlend mode="normal" in2="BackgroundImageFix" result="effect1_dropShadow_425_1879"/>
<feBlend mode="normal" in="SourceGraphic" in2="effect1_dropShadow_425_1879" result="shape"/>
</filter>
<filter id="filter8_d_425_1879" x="686.983" y="86.5" width="81.3838" height="141" filterUnits="userSpaceOnUse" color-interpolation-filters="sRGB">
<feFlood flood-opacity="0" result="BackgroundImageFix"/>
<feColorMatrix in="SourceAlpha" type="matrix" values="0 0 0 0 0 0 0 0 0 0 0 0 0 0 0 0 0 0 127 0" result="hardAlpha"/>
<feOffset dy="8"/>
<feGaussianBlur stdDeviation="6"/>
<feComposite in2="hardAlpha" operator="out"/>
<feColorMatrix type="matrix" values="0 0 0 0 0.52849 0 0 0 0 0.566891 0 0 0 0 0.9125 0 0 0 0.3 0"/>
<feBlend mode="normal" in2="BackgroundImageFix" result="effect1_dropShadow_425_1879"/>
<feBlend mode="normal" in="SourceGraphic" in2="effect1_dropShadow_425_1879" result="shape"/>
</filter>
<filter id="filter9_d_425_1879" x="773.059" y="109.5" width="80.3584" height="118" filterUnits="userSpaceOnUse" color-interpolation-filters="sRGB">
<feFlood flood-opacity="0" result="BackgroundImageFix"/>
<feColorMatrix in="SourceAlpha" type="matrix" values="0 0 0 0 0 0 0 0 0 0 0 0 0 0 0 0 0 0 127 0" result="hardAlpha"/>
<feOffset dy="8"/>
<feGaussianBlur stdDeviation="6"/>
<feComposite in2="hardAlpha" operator="out"/>
<feColorMatrix type="matrix" values="0 0 0 0 0.52849 0 0 0 0 0.566891 0 0 0 0 0.9125 0 0 0 0.3 0"/>
<feBlend mode="normal" in2="BackgroundImageFix" result="effect1_dropShadow_425_1879"/>
<feBlend mode="normal" in="SourceGraphic" in2="effect1_dropShadow_425_1879" result="shape"/>
</filter>
<filter id="filter10_d_425_1879" x="859.134" y="127.5" width="80.3584" height="100" filterUnits="userSpaceOnUse" color-interpolation-filters="sRGB">
<feFlood flood-opacity="0" result="BackgroundImageFix"/>
<feColorMatrix in="SourceAlpha" type="matrix" values="0 0 0 0 0 0 0 0 0 0 0 0 0 0 0 0 0 0 127 0" result="hardAlpha"/>
<feOffset dy="8"/>
<feGaussianBlur stdDeviation="6"/>
<feComposite in2="hardAlpha" operator="out"/>
<feColorMatrix type="matrix" values="0 0 0 0 0.52849 0 0 0 0 0.566891 0 0 0 0 0.9125 0 0 0 0.3 0"/>
<feBlend mode="normal" in2="BackgroundImageFix" result="effect1_dropShadow_425_1879"/>
<feBlend mode="normal" in="SourceGraphic" in2="effect1_dropShadow_425_1879" result="shape"/>
</filter>
<filter id="filter11_d_425_1879" x="945.208" y="72.5" width="80.3584" height="155" filterUnits="userSpaceOnUse" color-interpolation-filters="sRGB">
<feFlood flood-opacity="0" result="BackgroundImageFix"/>
<feColorMatrix in="SourceAlpha" type="matrix" values="0 0 0 0 0 0 0 0 0 0 0 0 0 0 0 0 0 0 127 0" result="hardAlpha"/>
<feOffset dy="8"/>
<feGaussianBlur stdDeviation="6"/>
<feComposite in2="hardAlpha" operator="out"/>
<feColorMatrix type="matrix" values="0 0 0 0 0.52849 0 0 0 0 0.566891 0 0 0 0 0.9125 0 0 0 0.3 0"/>
<feBlend mode="normal" in2="BackgroundImageFix" result="effect1_dropShadow_425_1879"/>
<feBlend mode="normal" in="SourceGraphic" in2="effect1_dropShadow_425_1879" result="shape"/>
</filter>
</defs>
</svg>
