<svg width="16" height="17" viewBox="0 0 16 17" fill="none" xmlns="http://www.w3.org/2000/svg">
<path d="M13.4551 5.61399L13.4538 5.61522C13.4247 5.64442 13.396 5.66016 13.3333 5.66016H9.33333C9.27064 5.66016 9.24194 5.64442 9.21284 5.61522L9.21161 5.61399C9.1824 5.58488 9.16667 5.55618 9.16667 5.49349V2.82682C9.16667 2.76412 9.18244 2.73483 9.21222 2.70504C9.2412 2.67606 9.2701 2.66016 9.33333 2.66016H13.3333C13.3966 2.66016 13.4255 2.67606 13.4544 2.70504C13.4842 2.73483 13.5 2.76412 13.5 2.82682V5.49349C13.5 5.55618 13.4843 5.58488 13.4551 5.61399ZM6.78845 8.28127L7.142 8.63482L6.78845 8.28127C6.75866 8.31105 6.72937 8.32682 6.66667 8.32682H2.66667C2.60398 8.32682 2.57527 8.31109 2.54617 8.28188L2.54494 8.28065C2.51573 8.25155 2.5 8.22285 2.5 8.16016V2.82682C2.5 2.76412 2.51577 2.73483 2.54555 2.70504C2.57453 2.67606 2.60343 2.66016 2.66667 2.66016H6.66667C6.72947 2.66016 6.75898 2.67588 6.78843 2.70503C6.81761 2.73449 6.83333 2.764 6.83333 2.82682V8.16016C6.83333 8.22339 6.81743 8.25229 6.78845 8.28127ZM2.54555 10.705L2.192 10.3515L2.54555 10.705C2.57453 10.6761 2.60343 10.6602 2.66667 10.6602H6.66667C6.72947 10.6602 6.75898 10.6759 6.78842 10.705C6.8176 10.7345 6.83333 10.764 6.83333 10.8268V13.4935C6.83333 13.5567 6.81743 13.5856 6.78845 13.6146C6.75866 13.6444 6.72937 13.6602 6.66667 13.6602H2.66667C2.60398 13.6602 2.57527 13.6444 2.54617 13.6152L2.54494 13.614C2.51573 13.5849 2.5 13.5562 2.5 13.4935V10.8268C2.5 10.7641 2.51577 10.7348 2.54555 10.705ZM9.21284 13.6152L9.21161 13.614C9.1824 13.5849 9.16667 13.5562 9.16667 13.4935V8.16016C9.16667 8.09745 9.18244 8.06816 9.21222 8.03838C9.2412 8.0094 9.27009 7.99349 9.33333 7.99349H13.3333C13.3966 7.99349 13.4255 8.0094 13.4544 8.03838C13.4842 8.06816 13.5 8.09745 13.5 8.16016V13.4935C13.5 13.5562 13.4843 13.5849 13.4551 13.614L13.4538 13.6152C13.4247 13.6444 13.396 13.6602 13.3333 13.6602H9.33333C9.27064 13.6602 9.24194 13.6444 9.21284 13.6152ZM2.83333 7.49349V7.99349H3.33333H6H6.5V7.49349V3.49349V2.99349H6H3.33333H2.83333V3.49349V7.49349ZM9.5 12.8268V13.3268H10H12.6667H13.1667V12.8268V8.82682V8.32682H12.6667H10H9.5V8.82682V12.8268ZM9.5 4.82682V5.32682H10H12.6667H13.1667V4.82682V3.49349V2.99349H12.6667H10H9.5V3.49349V4.82682ZM2.83333 12.8268V13.3268H3.33333H6H6.5V12.8268V11.4935V10.9935H6H3.33333H2.83333V11.4935V12.8268Z" fill="black" stroke="white"/>
</svg>
