<svg width="687" height="255" viewBox="0 0 687 255" fill="none" xmlns="http://www.w3.org/2000/svg">
<line x1="84.0469" y1="218.882" x2="687" y2="218.882" stroke="#E6E6E6" stroke-width="3.79449"/>
<line x1="84.0469" y1="164.938" x2="687" y2="164.938" stroke="#E6E6E6" stroke-width="0.580829"/>
<line x1="84.0469" y1="110.811" x2="687" y2="110.811" stroke="#E6E6E6" stroke-width="0.580829"/>
<line x1="84.0469" y1="56.6861" x2="687" y2="56.6861" stroke="#E6E6E6" stroke-width="0.580829"/>
<line x1="83.8818" y1="2.55919" x2="686.835" y2="2.55919" stroke="#E6E6E6" stroke-width="0.580829"/>
<path d="M134.536 235.279H136.644V243.526C136.64 244.282 136.48 244.933 136.163 245.479C135.846 246.021 135.403 246.439 134.834 246.733C134.269 247.023 133.611 247.168 132.859 247.168C132.171 247.168 131.553 247.046 131.003 246.802C130.457 246.553 130.024 246.187 129.703 245.702C129.382 245.217 129.222 244.614 129.222 243.892H131.335C131.339 244.209 131.408 244.482 131.541 244.711C131.679 244.94 131.868 245.116 132.108 245.238C132.349 245.36 132.626 245.421 132.939 245.421C133.278 245.421 133.567 245.351 133.803 245.21C134.04 245.065 134.22 244.851 134.342 244.568C134.468 244.286 134.533 243.938 134.536 243.526V235.279ZM146.342 235.279H148.467V242.942C148.467 243.782 148.268 244.52 147.871 245.158C147.478 245.796 146.924 246.294 146.211 246.653C145.497 247.008 144.662 247.185 143.708 247.185C142.75 247.185 141.914 247.008 141.2 246.653C140.486 246.294 139.932 245.796 139.539 245.158C139.146 244.52 138.949 243.782 138.949 242.942V235.279H141.074V242.764C141.074 243.253 141.18 243.688 141.394 244.07C141.612 244.452 141.917 244.751 142.311 244.969C142.704 245.183 143.17 245.29 143.708 245.29C144.246 245.29 144.712 245.183 145.105 244.969C145.502 244.751 145.808 244.452 146.022 244.07C146.235 243.688 146.342 243.253 146.342 242.764V235.279ZM150.776 247.008V235.279H152.901V245.227H158.066V247.008H150.776Z" fill="#212121"/>
<g opacity="0.5">
<path d="M16.183 13.8238V12.1344L21.1595 4.27156H22.5683V6.67681H21.7093L18.3591 11.9855V12.0772H25.3057V13.8238H16.183ZM21.778 16V13.3084L21.8009 12.5525V4.27156H23.8053V16H21.778ZM31.4706 16.2233C30.5276 16.2233 29.7182 15.9847 29.0424 15.5075C28.3705 15.0264 27.8532 14.3335 27.4905 13.4287C27.1316 12.52 26.9522 11.4262 26.9522 10.1472C26.956 8.86826 27.1373 7.78017 27.4962 6.88297C27.8589 5.98196 28.3762 5.29475 29.0482 4.82134C29.7239 4.34792 30.5314 4.11121 31.4706 4.11121C32.4098 4.11121 33.2173 4.34792 33.893 4.82134C34.5688 5.29475 35.0861 5.98196 35.445 6.88297C35.8077 7.78399 35.989 8.87207 35.989 10.1472C35.989 11.43 35.8077 12.5258 35.445 13.4344C35.0861 14.3392 34.5688 15.0303 33.893 15.5075C33.2211 15.9847 32.4136 16.2233 31.4706 16.2233ZM31.4706 14.4309C32.2036 14.4309 32.782 14.0701 33.2058 13.3485C33.6334 12.6231 33.8472 11.556 33.8472 10.1472C33.8472 9.21568 33.7499 8.43302 33.5551 7.79926C33.3604 7.16549 33.0855 6.68826 32.7305 6.36756C32.3754 6.04305 31.9555 5.88079 31.4706 5.88079C30.7414 5.88079 30.1649 6.24348 29.7411 6.96888C29.3173 7.69045 29.1035 8.7499 29.0997 10.1472C29.0959 11.0826 29.1894 11.8691 29.3803 12.5067C29.575 13.1442 29.8499 13.6253 30.205 13.9498C30.56 14.2705 30.9819 14.4309 31.4706 14.4309ZM42.2269 16.2233C41.2839 16.2233 40.4745 15.9847 39.7988 15.5075C39.1268 15.0264 38.6095 14.3335 38.2468 13.4287C37.8879 12.52 37.7085 11.4262 37.7085 10.1472C37.7123 8.86826 37.8937 7.78017 38.2525 6.88297C38.6152 5.98196 39.1325 5.29475 39.8045 4.82134C40.4802 4.34792 41.2877 4.11121 42.2269 4.11121C43.1661 4.11121 43.9736 4.34792 44.6493 4.82134C45.3251 5.29475 45.8424 5.98196 46.2013 6.88297C46.564 7.78399 46.7453 8.87207 46.7453 10.1472C46.7453 11.43 46.564 12.5258 46.2013 13.4344C45.8424 14.3392 45.3251 15.0303 44.6493 15.5075C43.9774 15.9847 43.1699 16.2233 42.2269 16.2233ZM42.2269 14.4309C42.9599 14.4309 43.5383 14.0701 43.9621 13.3485C44.3897 12.6231 44.6035 11.556 44.6035 10.1472C44.6035 9.21568 44.5062 8.43302 44.3115 7.79926C44.1167 7.16549 43.8419 6.68826 43.4868 6.36756C43.1317 6.04305 42.7118 5.88079 42.2269 5.88079C41.4977 5.88079 40.9212 6.24348 40.4974 6.96888C40.0736 7.69045 39.8598 8.7499 39.856 10.1472C39.8522 11.0826 39.9457 11.8691 40.1366 12.5067C40.3314 13.1442 40.6062 13.6253 40.9613 13.9498C41.3164 14.2705 41.7382 14.4309 42.2269 14.4309Z" fill="#212121"/>
<path d="M20.8403 68.8635C20.0156 68.8635 19.2826 68.7222 18.6412 68.4397C18.0036 68.1572 17.4997 67.7639 17.1293 67.26C16.759 66.756 16.5624 66.1738 16.5395 65.5133H18.6927C18.7118 65.8302 18.8168 66.107 19.0077 66.3437C19.1986 66.5766 19.4525 66.7579 19.7694 66.8877C20.0862 67.0175 20.4413 67.0824 20.8345 67.0824C21.2545 67.0824 21.6267 67.0099 21.9513 66.8648C22.2758 66.7159 22.5297 66.5098 22.7129 66.2463C22.8962 65.9829 22.9859 65.6794 22.9821 65.3358C22.9859 64.9807 22.8943 64.6677 22.7072 64.3966C22.5201 64.1255 22.2491 63.9136 21.894 63.7609C21.5428 63.6082 21.119 63.5318 20.6227 63.5318H19.5861V61.894H20.6227C21.0312 61.894 21.3881 61.8234 21.6936 61.6821C22.0028 61.5408 22.2452 61.3423 22.4209 61.0865C22.5965 60.8269 22.6824 60.5272 22.6786 60.1874C22.6824 59.8553 22.6079 59.567 22.4552 59.3227C22.3063 59.0745 22.0944 58.8817 21.8195 58.7443C21.5485 58.6068 21.2297 58.5381 20.8632 58.5381C20.5043 58.5381 20.1721 58.603 19.8667 58.7328C19.5613 58.8626 19.315 59.0478 19.128 59.2883C18.9409 59.525 18.8416 59.8075 18.8302 60.1359H16.7857C16.801 59.4792 16.99 58.9027 17.3527 58.4064C17.7192 57.9062 18.2079 57.5168 18.8187 57.2381C19.4296 56.9556 20.1149 56.8143 20.8746 56.8143C21.6573 56.8143 22.3369 56.9613 22.9134 57.2553C23.4937 57.5455 23.9423 57.9368 24.2592 58.4293C24.576 58.9218 24.7345 59.4658 24.7345 60.0614C24.7383 60.7219 24.5436 61.2755 24.1503 61.7222C23.7609 62.1689 23.2493 62.4609 22.6156 62.5984V62.69C23.4402 62.8045 24.0721 63.11 24.5111 63.6063C24.954 64.0988 25.1735 64.7116 25.1697 65.4446C25.1697 66.1013 24.9826 66.6892 24.6085 67.2084C24.2382 67.7238 23.7266 68.1285 23.0737 68.4225C22.4247 68.7165 21.6802 68.8635 20.8403 68.8635ZM31.4706 68.9265C30.5276 68.9265 29.7182 68.6879 29.0424 68.2106C28.3705 67.7296 27.8532 67.0366 27.4905 66.1318C27.1316 65.2232 26.9522 64.1293 26.9522 62.8504C26.956 61.5714 27.1373 60.4833 27.4962 59.5861C27.8589 58.6851 28.3762 57.9979 29.0482 57.5245C29.7239 57.051 30.5314 56.8143 31.4706 56.8143C32.4098 56.8143 33.2173 57.051 33.893 57.5245C34.5688 57.9979 35.0861 58.6851 35.445 59.5861C35.8077 60.4871 35.989 61.5752 35.989 62.8504C35.989 64.1332 35.8077 65.2289 35.445 66.1375C35.0861 67.0424 34.5688 67.7334 33.893 68.2106C33.2211 68.6879 32.4136 68.9265 31.4706 68.9265ZM31.4706 67.134C32.2036 67.134 32.782 66.7732 33.2058 66.0516C33.6334 65.3262 33.8472 64.2591 33.8472 62.8504C33.8472 61.9188 33.7499 61.1361 33.5551 60.5024C33.3604 59.8686 33.0855 59.3914 32.7305 59.0707C32.3754 58.7462 31.9555 58.5839 31.4706 58.5839C30.7414 58.5839 30.1649 58.9466 29.7411 59.672C29.3173 60.3936 29.1035 61.453 29.0997 62.8504C29.0959 63.7857 29.1894 64.5722 29.3803 65.2098C29.575 65.8474 29.8499 66.3284 30.205 66.6529C30.56 66.9736 30.9819 67.134 31.4706 67.134ZM42.2269 68.9265C41.2839 68.9265 40.4745 68.6879 39.7988 68.2106C39.1268 67.7296 38.6095 67.0366 38.2468 66.1318C37.8879 65.2232 37.7085 64.1293 37.7085 62.8504C37.7123 61.5714 37.8937 60.4833 38.2525 59.5861C38.6152 58.6851 39.1325 57.9979 39.8045 57.5245C40.4802 57.051 41.2877 56.8143 42.2269 56.8143C43.1661 56.8143 43.9736 57.051 44.6493 57.5245C45.3251 57.9979 45.8424 58.6851 46.2013 59.5861C46.564 60.4871 46.7453 61.5752 46.7453 62.8504C46.7453 64.1332 46.564 65.2289 46.2013 66.1375C45.8424 67.0424 45.3251 67.7334 44.6493 68.2106C43.9774 68.6879 43.1699 68.9265 42.2269 68.9265ZM42.2269 67.134C42.9599 67.134 43.5383 66.7732 43.9621 66.0516C44.3897 65.3262 44.6035 64.2591 44.6035 62.8504C44.6035 61.9188 44.5062 61.1361 44.3115 60.5024C44.1167 59.8686 43.8419 59.3914 43.4868 59.0707C43.1317 58.7462 42.7118 58.5839 42.2269 58.5839C41.4977 58.5839 40.9212 58.9466 40.4974 59.672C40.0736 60.3936 39.8598 61.453 39.856 62.8504C39.8522 63.7857 39.9457 64.5722 40.1366 65.2098C40.3314 65.8474 40.6062 66.3284 40.9613 66.6529C41.3164 66.9736 41.7382 67.134 42.2269 67.134Z" fill="#212121"/>
<path d="M17.1193 121.402V119.868L21.191 115.876C21.5805 115.483 21.905 115.133 22.1646 114.828C22.4242 114.523 22.6189 114.227 22.7487 113.94C22.8785 113.654 22.9434 113.349 22.9434 113.024C22.9434 112.654 22.8594 112.337 22.6915 112.073C22.5235 111.806 22.2925 111.6 21.9985 111.455C21.7045 111.31 21.3705 111.237 20.9963 111.237C20.6107 111.237 20.2728 111.317 19.9827 111.478C19.6925 111.634 19.4673 111.858 19.3069 112.148C19.1504 112.438 19.0721 112.784 19.0721 113.184H17.0506C17.0506 112.44 17.2205 111.793 17.5603 111.243C17.9 110.693 18.3677 110.268 18.9633 109.966C19.5627 109.664 20.2499 109.514 21.025 109.514C21.8114 109.514 22.5025 109.661 23.0981 109.955C23.6936 110.248 24.1556 110.651 24.4839 111.163C24.8161 111.674 24.9822 112.259 24.9822 112.915C24.9822 113.354 24.8982 113.786 24.7302 114.21C24.5622 114.633 24.2663 115.103 23.8425 115.618C23.4226 116.134 22.8327 116.758 22.073 117.491L20.0514 119.547V119.627H25.1597V121.402H17.1193ZM31.4706 121.626C30.5276 121.626 29.7182 121.387 29.0424 120.91C28.3705 120.429 27.8532 119.736 27.4905 118.831C27.1316 117.922 26.9522 116.829 26.9522 115.55C26.956 114.271 27.1373 113.183 27.4962 112.285C27.8589 111.384 28.3762 110.697 29.0482 110.224C29.7239 109.75 30.5314 109.514 31.4706 109.514C32.4098 109.514 33.2173 109.75 33.893 110.224C34.5688 110.697 35.0861 111.384 35.445 112.285C35.8077 113.186 35.989 114.274 35.989 115.55C35.989 116.832 35.8077 117.928 35.445 118.837C35.0861 119.742 34.5688 120.433 33.893 120.91C33.2211 121.387 32.4136 121.626 31.4706 121.626ZM31.4706 119.833C32.2036 119.833 32.782 119.472 33.2058 118.751C33.6334 118.025 33.8472 116.958 33.8472 115.55C33.8472 114.618 33.7499 113.835 33.5551 113.202C33.3604 112.568 33.0855 112.091 32.7305 111.77C32.3754 111.445 31.9555 111.283 31.4706 111.283C30.7414 111.283 30.1649 111.646 29.7411 112.371C29.3173 113.093 29.1035 114.152 29.0997 115.55C29.0959 116.485 29.1894 117.271 29.3803 117.909C29.575 118.547 29.8499 119.028 30.205 119.352C30.56 119.673 30.9819 119.833 31.4706 119.833ZM42.2269 121.626C41.2839 121.626 40.4745 121.387 39.7988 120.91C39.1268 120.429 38.6095 119.736 38.2468 118.831C37.8879 117.922 37.7085 116.829 37.7085 115.55C37.7123 114.271 37.8937 113.183 38.2525 112.285C38.6152 111.384 39.1325 110.697 39.8045 110.224C40.4802 109.75 41.2877 109.514 42.2269 109.514C43.1661 109.514 43.9736 109.75 44.6493 110.224C45.3251 110.697 45.8424 111.384 46.2013 112.285C46.564 113.186 46.7453 114.274 46.7453 115.55C46.7453 116.832 46.564 117.928 46.2013 118.837C45.8424 119.742 45.3251 120.433 44.6493 120.91C43.9774 121.387 43.1699 121.626 42.2269 121.626ZM42.2269 119.833C42.9599 119.833 43.5383 119.472 43.9621 118.751C44.3897 118.025 44.6035 116.958 44.6035 115.55C44.6035 114.618 44.5062 113.835 44.3115 113.202C44.1167 112.568 43.8419 112.091 43.4868 111.77C43.1317 111.445 42.7118 111.283 42.2269 111.283C41.4977 111.283 40.9212 111.646 40.4974 112.371C40.0736 113.093 39.8598 114.152 39.856 115.55C39.8522 116.485 39.9457 117.271 40.1366 117.909C40.3314 118.547 40.6062 119.028 40.9613 119.352C41.3164 119.673 41.7382 119.833 42.2269 119.833Z" fill="#212121"/>
<path d="M24.1575 162.377V174.105H22.0328V164.444H21.9641L19.221 166.197V164.25L22.1359 162.377H24.1575ZM31.4706 174.329C30.5275 174.329 29.7182 174.09 29.0424 173.613C28.3705 173.132 27.8531 172.439 27.4904 171.534C27.1316 170.625 26.9521 169.532 26.9521 168.253C26.9559 166.974 27.1373 165.886 27.4962 164.988C27.8589 164.087 28.3762 163.4 29.0481 162.927C29.7239 162.453 30.5314 162.217 31.4706 162.217C32.4097 162.217 33.2172 162.453 33.893 162.927C34.5687 163.4 35.0861 164.087 35.4449 164.988C35.8076 165.889 35.989 166.978 35.989 168.253C35.989 169.536 35.8076 170.631 35.4449 171.54C35.0861 172.445 34.5687 173.136 33.893 173.613C33.221 174.09 32.4136 174.329 31.4706 174.329ZM31.4706 172.536C32.2036 172.536 32.782 172.176 33.2058 171.454C33.6334 170.729 33.8472 169.661 33.8472 168.253C33.8472 167.321 33.7498 166.538 33.5551 165.905C33.3604 165.271 33.0855 164.794 32.7304 164.473C32.3754 164.149 31.9554 163.986 31.4706 163.986C30.7413 163.986 30.1648 164.349 29.7411 165.074C29.3173 165.796 29.1035 166.855 29.0997 168.253C29.0959 169.188 29.1894 169.975 29.3803 170.612C29.575 171.25 29.8499 171.731 30.2049 172.055C30.56 172.376 30.9819 172.536 31.4706 172.536ZM42.2269 174.329C41.2839 174.329 40.4745 174.09 39.7987 173.613C39.1268 173.132 38.6095 172.439 38.2468 171.534C37.8879 170.625 37.7084 169.532 37.7084 168.253C37.7123 166.974 37.8936 165.886 38.2525 164.988C38.6152 164.087 39.1325 163.4 39.8044 162.927C40.4802 162.453 41.2877 162.217 42.2269 162.217C43.1661 162.217 43.9735 162.453 44.6493 162.927C45.3251 163.4 45.8424 164.087 46.2012 164.988C46.5639 165.889 46.7453 166.978 46.7453 168.253C46.7453 169.536 46.5639 170.631 46.2012 171.54C45.8424 172.445 45.3251 173.136 44.6493 173.613C43.9774 174.09 43.1699 174.329 42.2269 174.329ZM42.2269 172.536C42.9599 172.536 43.5383 172.176 43.9621 171.454C44.3897 170.729 44.6035 169.661 44.6035 168.253C44.6035 167.321 44.5061 166.538 44.3114 165.905C44.1167 165.271 43.8418 164.794 43.4868 164.473C43.1317 164.149 42.7117 163.986 42.2269 163.986C41.4977 163.986 40.9212 164.349 40.4974 165.074C40.0736 165.796 39.8598 166.855 39.856 168.253C39.8522 169.188 39.9457 169.975 40.1366 170.612C40.3313 171.25 40.6062 171.731 40.9613 172.055C41.3163 172.376 41.7382 172.536 42.2269 172.536Z" fill="#212121"/>
<path d="M40.1695 227.032C39.2265 227.032 38.4171 226.793 37.7413 226.316C37.0694 225.835 36.5521 225.142 36.1894 224.237C35.8305 223.329 35.651 222.235 35.651 220.956C35.6549 219.677 35.8362 218.589 36.1951 217.692C36.5578 216.791 37.0751 216.103 37.747 215.63C38.4228 215.157 39.2303 214.92 40.1695 214.92C41.1087 214.92 41.9161 215.157 42.5919 215.63C43.2677 216.103 43.785 216.791 44.1438 217.692C44.5065 218.593 44.6879 219.681 44.6879 220.956C44.6879 222.239 44.5065 223.334 44.1438 224.243C43.785 225.148 43.2677 225.839 42.5919 226.316C41.92 226.793 41.1125 227.032 40.1695 227.032ZM40.1695 225.239C40.9025 225.239 41.4809 224.879 41.9047 224.157C42.3323 223.432 42.5461 222.365 42.5461 220.956C42.5461 220.024 42.4487 219.242 42.254 218.608C42.0593 217.974 41.7844 217.497 41.4294 217.176C41.0743 216.852 40.6543 216.689 40.1695 216.689C39.4403 216.689 38.8638 217.052 38.44 217.777C38.0162 218.499 37.8024 219.558 37.7986 220.956C37.7948 221.891 37.8883 222.678 38.0792 223.315C38.2739 223.953 38.5488 224.434 38.9039 224.758C39.2589 225.079 39.6808 225.239 40.1695 225.239Z" fill="#212121"/>
</g>
<path d="M229.864 247.008H227.596L231.725 235.279H234.348L238.483 247.008H236.215L233.082 237.685H232.991L229.864 247.008ZM229.938 242.409H236.123V244.116H229.938V242.409ZM247.421 235.279H249.546V242.942C249.546 243.782 249.347 244.52 248.95 245.158C248.557 245.796 248.003 246.294 247.289 246.653C246.575 247.008 245.741 247.185 244.787 247.185C243.828 247.185 242.992 247.008 242.278 246.653C241.564 246.294 241.011 245.796 240.617 245.158C240.224 244.52 240.028 243.782 240.028 242.942V235.279H242.152V242.764C242.152 243.253 242.259 243.688 242.473 244.07C242.691 244.452 242.996 244.751 243.389 244.969C243.782 245.183 244.248 245.29 244.787 245.29C245.325 245.29 245.791 245.183 246.184 244.969C246.581 244.751 246.886 244.452 247.1 244.07C247.314 243.688 247.421 243.253 247.421 242.764V235.279ZM259.712 239.025C259.617 238.715 259.485 238.439 259.317 238.194C259.153 237.946 258.954 237.734 258.721 237.559C258.492 237.383 258.229 237.251 257.931 237.163C257.633 237.072 257.309 237.026 256.957 237.026C256.327 237.026 255.766 237.184 255.274 237.501C254.781 237.818 254.394 238.284 254.111 238.899C253.832 239.51 253.693 240.254 253.693 241.132C253.693 242.018 253.832 242.768 254.111 243.383C254.39 243.997 254.777 244.465 255.274 244.786C255.77 245.103 256.347 245.261 257.003 245.261C257.599 245.261 258.114 245.147 258.549 244.918C258.988 244.688 259.326 244.364 259.563 243.944C259.8 243.52 259.918 243.024 259.918 242.455L260.399 242.529H257.215V240.869H261.974V242.277C261.974 243.282 261.76 244.15 261.333 244.883C260.905 245.616 260.317 246.181 259.569 246.578C258.821 246.972 257.961 247.168 256.992 247.168C255.911 247.168 254.963 246.926 254.146 246.441C253.332 245.952 252.697 245.259 252.239 244.362C251.784 243.461 251.557 242.392 251.557 241.155C251.557 240.208 251.691 239.363 251.958 238.618C252.229 237.874 252.607 237.242 253.092 236.723C253.577 236.199 254.146 235.802 254.798 235.531C255.451 235.256 256.161 235.119 256.929 235.119C257.578 235.119 258.183 235.214 258.744 235.405C259.305 235.592 259.804 235.86 260.239 236.207C260.678 236.555 261.039 236.967 261.321 237.444C261.604 237.921 261.789 238.448 261.877 239.025H259.712Z" fill="#212121"/>
<path d="M339.633 238.504C339.58 238.003 339.354 237.614 338.957 237.335C338.564 237.057 338.053 236.917 337.423 236.917C336.98 236.917 336.6 236.984 336.283 237.118C335.966 237.251 335.724 237.433 335.556 237.662C335.388 237.891 335.302 238.152 335.298 238.446C335.298 238.691 335.353 238.903 335.464 239.082C335.579 239.261 335.733 239.414 335.928 239.54C336.123 239.662 336.338 239.765 336.575 239.849C336.812 239.933 337.05 240.004 337.291 240.061L338.39 240.336C338.833 240.439 339.259 240.579 339.668 240.754C340.08 240.93 340.448 241.151 340.773 241.418C341.101 241.686 341.361 242.008 341.552 242.386C341.743 242.764 341.838 243.207 341.838 243.715C341.838 244.402 341.662 245.007 341.311 245.53C340.96 246.05 340.452 246.456 339.788 246.75C339.127 247.04 338.327 247.185 337.388 247.185C336.476 247.185 335.684 247.044 335.012 246.762C334.344 246.479 333.82 246.067 333.442 245.525C333.068 244.982 332.866 244.322 332.835 243.543H334.926C334.956 243.952 335.082 244.291 335.304 244.562C335.525 244.834 335.813 245.036 336.168 245.17C336.527 245.303 336.928 245.37 337.371 245.37C337.833 245.37 338.238 245.301 338.585 245.164C338.936 245.023 339.211 244.828 339.41 244.58C339.608 244.328 339.71 244.034 339.713 243.698C339.71 243.392 339.62 243.14 339.444 242.942C339.269 242.739 339.022 242.571 338.705 242.438C338.392 242.3 338.026 242.178 337.606 242.071L336.272 241.728C335.306 241.48 334.542 241.104 333.981 240.6C333.423 240.092 333.145 239.418 333.145 238.578C333.145 237.887 333.332 237.282 333.706 236.763C334.084 236.243 334.597 235.841 335.246 235.554C335.895 235.264 336.63 235.119 337.451 235.119C338.284 235.119 339.013 235.264 339.639 235.554C340.269 235.841 340.763 236.24 341.122 236.751C341.481 237.259 341.666 237.843 341.678 238.504H339.633ZM343.732 247.008V235.279H351.36V237.06H345.857V240.244H350.965V242.026H345.857V245.227H351.406V247.008H343.732ZM353.528 247.008V235.279H357.926C358.827 235.279 359.583 235.447 360.194 235.783C360.808 236.119 361.272 236.581 361.585 237.169C361.902 237.753 362.061 238.418 362.061 239.162C362.061 239.914 361.902 240.582 361.585 241.167C361.268 241.751 360.801 242.211 360.182 242.547C359.564 242.879 358.802 243.045 357.897 243.045H354.982V241.298H357.611C358.138 241.298 358.569 241.207 358.905 241.023C359.241 240.84 359.489 240.588 359.65 240.267C359.814 239.947 359.896 239.578 359.896 239.162C359.896 238.746 359.814 238.379 359.65 238.063C359.489 237.746 359.239 237.499 358.899 237.324C358.563 237.144 358.13 237.055 357.599 237.055H355.652V247.008H353.528Z" fill="#212121"/>
<path d="M543.6 235.279V247.008H541.71L536.184 239.019H536.087V247.008H533.962V235.279H535.863L541.384 243.274H541.487V235.279H543.6ZM556.395 241.144C556.395 242.407 556.159 243.49 555.685 244.391C555.216 245.288 554.574 245.975 553.761 246.452C552.952 246.93 552.033 247.168 551.006 247.168C549.979 247.168 549.059 246.93 548.246 246.452C547.437 245.971 546.795 245.282 546.322 244.385C545.852 243.484 545.618 242.403 545.618 241.144C545.618 239.88 545.852 238.799 546.322 237.902C546.795 237.001 547.437 236.312 548.246 235.835C549.059 235.358 549.979 235.119 551.006 235.119C552.033 235.119 552.952 235.358 553.761 235.835C554.574 236.312 555.216 237.001 555.685 237.902C556.159 238.799 556.395 239.88 556.395 241.144ZM554.259 241.144C554.259 240.254 554.12 239.504 553.841 238.893C553.566 238.278 553.185 237.814 552.696 237.501C552.207 237.184 551.644 237.026 551.006 237.026C550.369 237.026 549.806 237.184 549.317 237.501C548.828 237.814 548.445 238.278 548.166 238.893C547.891 239.504 547.754 240.254 547.754 241.144C547.754 242.033 547.891 242.785 548.166 243.4C548.445 244.011 548.828 244.475 549.317 244.792C549.806 245.105 550.369 245.261 551.006 245.261C551.644 245.261 552.207 245.105 552.696 244.792C553.185 244.475 553.566 244.011 553.841 243.4C554.12 242.785 554.259 242.033 554.259 241.144ZM559.343 235.279L562.396 244.511H562.516L565.562 235.279H567.899L563.764 247.008H561.141L557.012 235.279H559.343Z" fill="#212121"/>
<path d="M642.125 247.008H638.151V235.279H642.205C643.37 235.279 644.37 235.514 645.206 235.984C646.046 236.45 646.691 237.12 647.142 237.994C647.592 238.868 647.817 239.914 647.817 241.132C647.817 242.354 647.59 243.404 647.136 244.282C646.685 245.16 646.034 245.834 645.183 246.303C644.336 246.773 643.316 247.008 642.125 247.008ZM640.275 245.17H642.022C642.839 245.17 643.52 245.021 644.066 244.723C644.612 244.421 645.023 243.973 645.298 243.377C645.572 242.778 645.71 242.029 645.71 241.132C645.71 240.235 645.572 239.49 645.298 238.899C645.023 238.303 644.616 237.858 644.078 237.564C643.543 237.267 642.879 237.118 642.085 237.118H640.275V245.17ZM649.836 247.008V235.279H657.464V237.06H651.961V240.244H657.069V242.026H651.961V245.227H657.51V247.008H649.836ZM669.671 239.237H667.529C667.468 238.885 667.355 238.574 667.191 238.303C667.027 238.028 666.823 237.795 666.578 237.604C666.334 237.414 666.055 237.27 665.742 237.175C665.433 237.076 665.099 237.026 664.74 237.026C664.102 237.026 663.537 237.186 663.045 237.507C662.552 237.824 662.167 238.29 661.888 238.904C661.609 239.515 661.47 240.262 661.47 241.144C661.47 242.041 661.609 242.797 661.888 243.411C662.171 244.022 662.556 244.484 663.045 244.797C663.537 245.107 664.101 245.261 664.734 245.261C665.086 245.261 665.414 245.215 665.719 245.124C666.029 245.028 666.305 244.889 666.55 244.706C666.798 244.522 667.006 244.297 667.174 244.03C667.346 243.763 667.464 243.457 667.529 243.114L669.671 243.125C669.591 243.682 669.417 244.206 669.15 244.694C668.886 245.183 668.541 245.614 668.113 245.988C667.685 246.359 667.185 246.649 666.613 246.859C666.04 247.065 665.404 247.168 664.706 247.168C663.675 247.168 662.755 246.93 661.945 246.452C661.136 245.975 660.498 245.286 660.033 244.385C659.567 243.484 659.334 242.403 659.334 241.144C659.334 239.88 659.569 238.799 660.038 237.902C660.508 237.001 661.147 236.312 661.957 235.835C662.766 235.358 663.682 235.119 664.706 235.119C665.359 235.119 665.966 235.211 666.527 235.394C667.088 235.577 667.588 235.846 668.027 236.201C668.466 236.553 668.827 236.984 669.11 237.496C669.396 238.003 669.583 238.584 669.671 239.237Z" fill="#212121"/>
<path d="M442.786 241.144C442.786 242.407 442.55 243.49 442.076 244.391C441.607 245.288 440.965 245.975 440.152 246.452C439.343 246.93 438.424 247.168 437.397 247.168C436.37 247.168 435.45 246.93 434.637 246.452C433.828 245.971 433.186 245.282 432.713 244.385C432.243 243.484 432.009 242.403 432.009 241.144C432.009 239.88 432.243 238.799 432.713 237.902C433.186 237.001 433.828 236.312 434.637 235.835C435.45 235.358 436.37 235.119 437.397 235.119C438.424 235.119 439.343 235.358 440.152 235.835C440.965 236.312 441.607 237.001 442.076 237.902C442.55 238.799 442.786 239.88 442.786 241.144ZM440.65 241.144C440.65 240.254 440.511 239.504 440.232 238.893C439.957 238.278 439.576 237.814 439.087 237.501C438.598 237.184 438.035 237.026 437.397 237.026C436.76 237.026 436.197 237.184 435.708 237.501C435.219 237.814 434.836 238.278 434.557 238.893C434.282 239.504 434.145 240.254 434.145 241.144C434.145 242.033 434.282 242.785 434.557 243.4C434.836 244.011 435.219 244.475 435.708 244.792C436.197 245.105 436.76 245.261 437.397 245.261C438.035 245.261 438.598 245.105 439.087 244.792C439.576 244.475 439.957 244.011 440.232 243.4C440.511 242.785 440.65 242.033 440.65 241.144ZM454.834 239.237H452.692C452.631 238.885 452.519 238.574 452.354 238.303C452.19 238.028 451.986 237.795 451.742 237.604C451.497 237.414 451.219 237.27 450.905 237.175C450.596 237.076 450.262 237.026 449.903 237.026C449.266 237.026 448.701 237.186 448.208 237.507C447.716 237.824 447.33 238.29 447.051 238.904C446.773 239.515 446.633 240.262 446.633 241.144C446.633 242.041 446.773 242.797 447.051 243.411C447.334 244.022 447.719 244.484 448.208 244.797C448.701 245.107 449.264 245.261 449.898 245.261C450.249 245.261 450.577 245.215 450.883 245.124C451.192 245.028 451.469 244.889 451.713 244.706C451.961 244.522 452.169 244.297 452.337 244.03C452.509 243.763 452.627 243.457 452.692 243.114L454.834 243.125C454.754 243.682 454.58 244.206 454.313 244.694C454.049 245.183 453.704 245.614 453.276 245.988C452.849 246.359 452.349 246.649 451.776 246.859C451.203 247.065 450.568 247.168 449.869 247.168C448.838 247.168 447.918 246.93 447.109 246.452C446.299 245.975 445.662 245.286 445.196 244.385C444.73 243.484 444.497 242.403 444.497 241.144C444.497 239.88 444.732 238.799 445.202 237.902C445.671 237.001 446.311 236.312 447.12 235.835C447.929 235.358 448.846 235.119 449.869 235.119C450.522 235.119 451.129 235.211 451.69 235.394C452.251 235.577 452.751 235.846 453.19 236.201C453.63 236.553 453.99 236.984 454.273 237.496C454.559 238.003 454.746 238.584 454.834 239.237ZM456.264 237.06V235.279H465.622V237.06H461.997V247.008H459.889V237.06H456.264Z" fill="#212121"/>
<line x1="84.2072" y1="220.779" x2="84.2072" y2="2.84937" stroke="#E6E6E6" stroke-width="3.79449"/>
<path d="M139.609 199.413L236.117 199.41L335.208 199.406C351.622 199.406 367.987 197.666 384.027 194.216L422.39 185.964C438.543 182.49 455.298 182.9 471.277 187.162L505.262 196.225C523.476 201.082 542.839 195.03 555.014 180.674V180.674L590.683 135.805L610.616 105.181L660.973 28.2624" stroke="url(#paint0_linear_425_1770)" stroke-width="4" stroke-linecap="round"/>
<defs>
<linearGradient id="paint0_linear_425_1770" x1="386.265" y1="-56.6966" x2="261.942" y2="268.296" gradientUnits="userSpaceOnUse">
<stop stop-color="#1B59F8"/>
<stop offset="1" stop-color="#1B59F8" stop-opacity="0"/>
</linearGradient>
</defs>
</svg>
